<svg width="110" height="54" viewBox="0 0 110 54" fill="none" xmlns="http://www.w3.org/2000/svg">
<path d="M18.22 32.52C18.2667 32.8 18.57 33.01 19.13 33.15C19.69 33.29 20.3433 33.3833 21.09 33.43C21.8833 33.4767 22.7 33.5 23.54 33.5C24.38 33.5 25.08 33.5 25.64 33.5C27.1333 33.5 28.3467 33.5233 29.28 33.57C30.2133 33.57 30.8667 33.6167 31.24 33.71C31.7067 33.85 31.9633 33.92 32.01 33.92C32.1033 33.8733 32.1967 33.6867 32.29 33.36C32.4767 32.4267 32.71 31.1667 32.99 29.58C33.27 27.9933 33.55 26.4067 33.83 24.82C34.11 23.2333 34.3433 21.8567 34.53 20.69C34.7633 19.4767 34.9033 18.7767 34.95 18.59C35.0433 18.2167 35.0433 18.03 34.95 18.03C34.8567 17.9833 34.6233 18.1 34.25 18.38C34.11 18.4733 33.7133 18.8 33.06 19.36C32.4067 19.8733 31.5667 20.55 30.54 21.39C29.56 22.23 28.4633 23.1633 27.25 24.19C26.0833 25.17 24.9167 26.1733 23.75 27.2C22.63 28.18 21.58 29.1367 20.6 30.07C19.62 31.0033 18.8267 31.82 18.22 32.52ZM0.16 49.6C0.206667 48.76 0.51 48.0133 1.07 47.36C1.67667 46.66 2.47 45.8433 3.45 44.91C12.41 36.5567 19.6433 29.9767 25.15 25.17C30.6567 20.3167 34.18 17.3533 35.72 16.28C36.0933 16.0467 36.6533 15.8367 37.4 15.65C38.1467 15.4633 38.66 15.23 38.94 14.95C39.22 14.67 39.36 14.6467 39.36 14.88C39.4067 15.0667 39.3833 15.2533 39.29 15.44C38.8233 16.14 38.45 16.9567 38.17 17.89C37.89 18.7767 37.7033 19.5233 37.61 20.13C37.5633 20.3167 37.4233 20.9467 37.19 22.02C37.0033 23.0467 36.77 24.33 36.49 25.87C36.21 27.3633 35.9067 28.9967 35.58 30.77C35.3 32.4967 35.02 34.1767 34.74 35.81C34.46 37.3967 34.2267 38.8433 34.04 40.15C33.9 41.41 33.8067 42.2967 33.76 42.81C33.76 43.6033 33.83 44.2333 33.97 44.7C34.1567 45.12 34.3667 45.4467 34.6 45.68C34.8333 45.8667 35.0667 45.9833 35.3 46.03C35.5333 46.0767 35.72 46.1 35.86 46.1C36.0933 46.1 36.3733 46.0767 36.7 46.03C37.0267 45.9367 37.3767 45.8433 37.75 45.75C38.1233 45.6567 38.31 45.68 38.31 45.82C38.3567 45.96 38.1933 46.0767 37.82 46.17C37.6333 46.2167 37.2833 46.31 36.77 46.45C36.3033 46.59 35.7433 46.7533 35.09 46.94C34.4833 47.1267 33.8533 47.3133 33.2 47.5C32.5933 47.64 32.0567 47.7567 31.59 47.85C30.89 47.85 30.4233 47.3833 30.19 46.45C30.2367 46.17 30.33 45.5867 30.47 44.7C30.61 43.7667 30.75 42.7867 30.89 41.76C31.0767 40.7333 31.24 39.7767 31.38 38.89C31.52 37.9567 31.59 37.35 31.59 37.07C31.59 36.5567 31.3333 36.0433 30.82 35.53C30.3533 34.97 29.6533 34.5733 28.72 34.34C28.3933 34.2467 27.7633 34.1767 26.83 34.13C25.8967 34.0833 24.7767 34.06 23.47 34.06C22.1167 34.06 20.7867 34.06 19.48 34.06C18.1733 34.0133 17.1933 33.9433 16.54 33.85C12.9933 37.07 10.0067 40.01 7.58 42.67C5.2 45.33 3.40333 47.5467 2.19 49.32C1.81667 49.9267 1.53667 50.4633 1.35 50.93C1.21 51.4433 1.09333 52.0967 1 52.89C0.906667 53.17 0.766667 53.24 0.58 53.1L0.16 49.6ZM77.7102 2.49C77.7102 3.19 77.6868 3.65667 77.6402 3.89C77.5935 4.12333 77.5002 4.17 77.3602 4.03C77.1268 3.79667 76.8002 3.54 76.3802 3.26C76.0068 2.93333 75.3302 2.77 74.3502 2.77C73.5102 2.77 72.7402 2.81667 72.0402 2.91C71.3402 3.00333 70.6168 3.19 69.8702 3.47C69.1702 3.75 68.4235 4.14667 67.6302 4.66C66.8368 5.12667 65.9502 5.78 64.9702 6.62C63.5702 7.78667 62.0535 9.51334 60.4202 11.8C58.7868 14.04 57.1302 16.5133 55.4502 19.22C53.8168 21.88 52.2535 24.61 50.7602 27.41C49.2668 30.1633 47.9602 32.6367 46.8402 34.83C46.4668 35.5767 46.0468 36.4633 45.5802 37.49C45.1602 38.47 44.7635 39.4733 44.3902 40.5C44.0635 41.48 43.7835 42.4133 43.5502 43.3C43.3168 44.14 43.2002 44.77 43.2002 45.19C43.2002 46.45 43.6202 47.08 44.4602 47.08C44.9735 47.08 45.5568 46.8467 46.2102 46.38C46.8635 45.8667 47.4935 45.1667 48.1002 44.28C48.7068 43.3467 49.2202 42.2267 49.6402 40.92C50.0602 39.5667 50.2702 38.05 50.2702 36.37C50.2702 35.81 50.2235 35.3667 50.1302 35.04C50.0835 34.6667 50.0135 34.3633 49.9202 34.13C49.9202 33.85 50.0602 33.57 50.3402 33.29C50.5268 33.1033 50.7602 32.8933 51.0402 32.66C51.3202 32.38 51.5768 32.17 51.8102 32.03C51.9502 32.03 52.0435 32.0767 52.0902 32.17C52.0902 33.1033 52.2535 33.8967 52.5802 34.55C52.9535 35.1567 53.3968 35.67 53.9102 36.09C54.4702 36.4633 55.0535 36.7433 55.6602 36.93C56.3135 37.1167 56.9202 37.21 57.4802 37.21C58.2735 37.21 59.1368 37.0933 60.0702 36.86C61.0035 36.58 61.9602 36.1367 62.9402 35.53C63.1735 35.39 63.3135 35.4133 63.3602 35.6C63.4535 35.74 63.3835 35.8567 63.1502 35.95C61.6568 36.7433 60.2802 37.3267 59.0202 37.7C57.8068 38.0733 56.6635 38.26 55.5902 38.26C54.7035 38.26 53.8868 38.0733 53.1402 37.7C52.4402 37.28 51.9035 36.8133 51.5302 36.3C51.5302 38.0733 51.2268 39.6833 50.6202 41.13C50.0602 42.5767 49.3602 43.8133 48.5202 44.84C47.6802 45.82 46.7702 46.59 45.7902 47.15C44.8102 47.71 43.9235 47.99 43.1302 47.99C42.3835 47.99 41.7535 47.7567 41.2402 47.29C40.7735 46.8233 40.5402 46.1 40.5402 45.12C40.5402 44.3733 40.7035 43.4633 41.0302 42.39C41.3568 41.3167 41.7535 40.2433 42.2202 39.17C42.7335 38.05 43.2468 37 43.7602 36.02C44.2735 34.9933 44.6935 34.1767 45.0202 33.57C46.2802 31.2367 47.6335 28.8567 49.0802 26.43C50.5268 24.0033 52.0435 21.6 53.6302 19.22C55.2635 16.84 56.9668 14.5533 58.7402 12.36C60.5602 10.12 62.4735 8.06667 64.4802 6.2C65.0402 5.68667 65.7402 5.08 66.5802 4.38C67.4668 3.68 68.4002 3.02667 69.3802 2.42C70.3602 1.76667 71.3402 1.23 72.3202 0.809999C73.3468 0.390001 74.2802 0.180002 75.1202 0.180002C75.9602 0.180002 76.5902 0.413335 77.0102 0.880001C77.4768 1.3 77.7102 1.83667 77.7102 2.49ZM93.6056 43.16C91.8323 45.0267 89.989 46.52 88.0756 47.64C86.1623 48.8067 84.0623 49.39 81.7756 49.39C80.8423 49.39 80.189 49.1333 79.8156 48.62C79.489 48.1533 79.3256 47.5233 79.3256 46.73C79.3256 45.9367 79.5123 44.98 79.8856 43.86C80.259 42.6933 80.7723 41.4333 81.4256 40.08C80.8656 40.8733 80.259 41.6433 79.6056 42.39C78.999 43.1367 78.369 43.8133 77.7156 44.42C77.109 44.98 76.5023 45.4467 75.8956 45.82C75.289 46.1467 74.7056 46.31 74.1456 46.31C73.119 46.31 72.6056 45.7967 72.6056 44.77C72.6056 44.3967 72.7923 43.7667 73.1656 42.88C73.5856 41.9933 74.3556 40.6867 75.4756 38.96C75.989 38.1667 76.5023 37.35 77.0156 36.51C77.529 35.6233 77.7856 34.8533 77.7856 34.2C77.7856 33.78 77.6223 33.43 77.2956 33.15C77.0156 32.8233 76.479 32.66 75.6856 32.66C74.659 32.66 73.469 32.87 72.1156 33.29C70.809 33.71 69.6656 34.1067 68.6856 34.48C68.7323 35.2267 68.499 36.3467 67.9856 37.84C67.4723 39.3333 66.7723 40.8267 65.8856 42.32C64.999 43.8133 63.9723 45.12 62.8056 46.24C61.6856 47.36 60.4956 47.92 59.2356 47.92C58.629 47.92 58.139 47.7333 57.7656 47.36C57.3923 46.9867 57.2056 46.4733 57.2056 45.82C57.2056 44.56 57.4856 43.2767 58.0456 41.97C58.6056 40.6633 59.3056 39.45 60.1456 38.33C60.9856 37.21 61.8956 36.23 62.8756 35.39C63.8556 34.5033 64.7656 33.85 65.6056 33.43C65.5123 33.2433 65.4656 32.9867 65.4656 32.66C65.4656 32.5667 65.489 32.45 65.5356 32.31C65.5823 32.17 65.6756 32.1 65.8156 32.1C66.049 32.3333 66.2823 32.4733 66.5156 32.52C66.749 32.52 67.0523 32.52 67.4256 32.52C68.219 32.52 69.269 32.4733 70.5756 32.38C71.8823 32.24 73.1423 32.17 74.3556 32.17C76.129 32.17 77.3423 32.45 77.9956 33.01C78.649 33.5233 78.9756 34.34 78.9756 35.46C78.9756 36.02 78.789 36.7433 78.4156 37.63C78.089 38.47 77.6223 39.4033 77.0156 40.43C76.3623 41.5033 75.8723 42.39 75.5456 43.09C75.219 43.7433 75.0556 44.2567 75.0556 44.63C75.0556 45.0033 75.219 45.19 75.5456 45.19C75.8723 45.19 76.339 44.9333 76.9456 44.42C77.599 43.9067 78.2523 43.3 78.9056 42.6C79.6056 41.9 80.259 41.1767 80.8656 40.43C81.4723 39.6367 81.9156 38.96 82.1956 38.4C82.6623 37.6067 83.1523 36.7667 83.6656 35.88C84.179 34.9933 84.739 34.1067 85.3456 33.22C85.579 32.9867 85.9056 32.8 86.3256 32.66C86.7923 32.52 87.3056 32.4033 87.8656 32.31C88.2856 32.31 88.4956 32.4033 88.4956 32.59C88.2623 32.6833 88.029 32.8233 87.7956 33.01C87.609 33.15 87.3756 33.43 87.0956 33.85C86.3023 35.0633 85.579 36.3 84.9256 37.56C84.2723 38.82 83.689 40.01 83.1756 41.13C82.709 42.25 82.3356 43.2533 82.0556 44.14C81.8223 45.0267 81.7056 45.7033 81.7056 46.17C81.7056 46.8233 81.8456 47.3833 82.1256 47.85C82.4056 48.3167 82.8956 48.55 83.5956 48.55C84.809 48.55 86.2323 48.1533 87.8656 47.36C89.499 46.52 91.319 45.0033 93.3256 42.81C93.5123 42.7167 93.6056 42.8333 93.6056 43.16ZM67.1456 35.74C67.1456 35.6 67.1456 35.4367 67.1456 35.25C67.1456 35.0633 67.1223 34.9 67.0756 34.76C66.889 34.6667 66.679 34.5267 66.4456 34.34C66.2123 34.1533 66.0256 33.99 65.8856 33.85C65.2323 34.0367 64.5323 34.5733 63.7856 35.46C63.039 36.3467 62.339 37.3733 61.6856 38.54C61.0323 39.7067 60.4956 40.92 60.0756 42.18C59.6556 43.3933 59.4456 44.4667 59.4456 45.4C59.4456 45.8667 59.539 46.2167 59.7256 46.45C59.959 46.6833 60.2156 46.8 60.4956 46.8C61.009 46.8 61.639 46.4733 62.3856 45.82C63.179 45.1667 63.9256 44.3267 64.6256 43.3C65.3256 42.2267 65.909 41.0367 66.3756 39.73C66.889 38.4233 67.1456 37.0933 67.1456 35.74ZM108.595 21.95C108.222 22.0433 107.802 22.23 107.335 22.51C106.869 22.7433 106.519 23.0467 106.285 23.42C105.212 24.9133 104.162 26.4767 103.135 28.11C102.155 29.7433 101.199 31.3767 100.265 33.01H108.945C109.085 33.1033 109.155 33.1967 109.155 33.29C109.155 33.3833 109.109 33.4533 109.015 33.5C108.642 33.5 108.082 33.5233 107.335 33.57C106.589 33.57 105.772 33.5933 104.885 33.64C103.999 33.6867 103.089 33.7333 102.155 33.78C101.222 33.8267 100.405 33.8733 99.7055 33.92C98.3988 36.2533 97.3955 38.2367 96.6955 39.87C95.9955 41.5033 95.6455 42.9267 95.6455 44.14C95.6455 45.82 96.4155 46.66 97.9555 46.66C98.7021 46.66 99.5421 46.4733 100.475 46.1C101.455 45.68 102.482 45.1433 103.555 44.49C103.695 44.35 103.835 44.3733 103.975 44.56C104.115 44.7 104.069 44.8167 103.835 44.91C102.249 45.9367 100.779 46.6833 99.4255 47.15C98.0721 47.6167 96.6955 47.85 95.2955 47.85C94.5488 47.85 93.8955 47.64 93.3355 47.22C92.7755 46.7533 92.4955 45.9833 92.4955 44.91C92.4955 43.9767 92.9155 42.6 93.7555 40.78C94.5955 38.96 95.8321 36.72 97.4655 34.06C96.9055 34.1067 96.2055 34.1767 95.3655 34.27C94.5721 34.3167 94.1055 34.34 93.9655 34.34C93.7321 34.34 93.6155 34.2467 93.6155 34.06C93.8021 33.7333 94.1055 33.4067 94.5255 33.08L98.0955 33.01C98.5155 32.31 98.9821 31.54 99.4955 30.7C100.009 29.8133 100.522 28.95 101.035 28.11C101.549 27.2233 102.062 26.3833 102.575 25.59C103.135 24.75 103.625 23.98 104.045 23.28C104.559 23.0467 105.259 22.7433 106.145 22.37C107.079 21.9967 107.895 21.6933 108.595 21.46C108.689 21.46 108.759 21.53 108.805 21.67C108.852 21.7633 108.782 21.8567 108.595 21.95Z" fill="#121212"/>
</svg>
