<svg width="24" height="24" viewBox="0 0 24 24" fill="none" xmlns="http://www.w3.org/2000/svg">
<g id="Brands/Apple ">
<path id="Vector" d="M20.9856 17.1449C20.6529 17.9135 20.2591 18.621 19.8028 19.2714C19.1809 20.1581 18.6717 20.7719 18.2792 21.1127C17.6709 21.6722 17.0191 21.9587 16.3211 21.975C15.82 21.975 15.2158 21.8324 14.5124 21.5432C13.8066 21.2553 13.1581 21.1127 12.5651 21.1127C11.9432 21.1127 11.2762 21.2553 10.5627 21.5432C9.84817 21.8324 9.27255 21.9832 8.83245 21.9981C8.16313 22.0266 7.49599 21.732 6.83006 21.1127C6.40503 20.742 5.87341 20.1065 5.23654 19.2062C4.55324 18.2448 3.99146 17.13 3.55136 15.8589C3.08003 14.4861 2.84375 13.1567 2.84375 11.8696C2.84375 10.3953 3.16232 9.12378 3.8004 8.05821C4.30188 7.20232 4.96903 6.52716 5.80402 6.03151C6.639 5.53587 7.5412 5.2833 8.5128 5.26714C9.04442 5.26714 9.74158 5.43158 10.6079 5.75477C11.4718 6.07904 12.0266 6.24349 12.2698 6.24349C12.4516 6.24349 13.0678 6.0512 14.1125 5.66786C15.1003 5.31236 15.9341 5.16516 16.6171 5.22314C18.468 5.37251 19.8585 6.10213 20.7832 7.4166C19.1279 8.41956 18.3091 9.82433 18.3254 11.6264C18.3403 13.0301 18.8496 14.1982 19.8503 15.1257C20.3039 15.5561 20.8104 15.8888 21.3739 16.1251C21.2517 16.4795 21.1227 16.819 20.9856 17.1449ZM16.7407 0.441082C16.7407 1.54128 16.3388 2.56854 15.5376 3.51936C14.5707 4.64969 13.4013 5.30285 12.1331 5.19979C12.117 5.0678 12.1076 4.92888 12.1076 4.7829C12.1076 3.72671 12.5674 2.59638 13.3839 1.67217C13.7916 1.20423 14.31 0.815149 14.9387 0.504768C15.5661 0.199018 16.1595 0.0299319 16.7176 0.000976562C16.7339 0.148056 16.7407 0.295146 16.7407 0.441068V0.441082Z" fill="#121212"/>
</g>
</svg>
