<svg width="24" height="24" viewBox="0 0 24 24" fill="none" xmlns="http://www.w3.org/2000/svg">
<g id="local_mall_FILL0_wght300_GRAD0_opsz24">
<path id="Vector" d="M5.8 22C5.3 22 4.875 21.8205 4.525 21.4615C4.175 21.1026 4 20.6667 4 20.1538V8.46154C4 7.94872 4.175 7.51282 4.525 7.15385C4.875 6.79487 5.3 6.61539 5.8 6.61539H8C8 5.33333 8.43733 4.24342 9.312 3.34564C10.1873 2.44855 11.25 2 12.5 2C13.75 2 14.8127 2.44855 15.688 3.34564C16.5627 4.24342 17 5.33333 17 6.61539H19.2C19.7 6.61539 20.125 6.79487 20.475 7.15385C20.825 7.51282 21 7.94872 21 8.46154V20.1538C21 20.6667 20.825 21.1026 20.475 21.4615C20.125 21.8205 19.7 22 19.2 22H5.8ZM5.8 20.4615H19.2C19.2667 20.4615 19.3333 20.4274 19.4 20.359C19.4667 20.2906 19.5 20.2222 19.5 20.1538V8.46154C19.5 8.39316 19.4667 8.32479 19.4 8.25641C19.3333 8.18804 19.2667 8.15385 19.2 8.15385H5.8C5.73333 8.15385 5.66667 8.18804 5.6 8.25641C5.53333 8.32479 5.5 8.39316 5.5 8.46154V20.1538C5.5 20.2222 5.53333 20.2906 5.6 20.359C5.66667 20.4274 5.73333 20.4615 5.8 20.4615ZM12.5 13.7949C13.75 13.7949 14.8127 13.3463 15.688 12.4492C16.5627 11.5515 17 10.4615 17 9.17949H15.5C15.5 10.0342 15.2083 10.7607 14.625 11.359C14.0417 11.9573 13.3333 12.2564 12.5 12.2564C11.6667 12.2564 10.9583 11.9573 10.375 11.359C9.79167 10.7607 9.5 10.0342 9.5 9.17949H8C8 10.4615 8.43733 11.5515 9.312 12.4492C10.1873 13.3463 11.25 13.7949 12.5 13.7949ZM9.5 6.61539H15.5C15.5 5.76068 15.2083 5.03419 14.625 4.4359C14.0417 3.83761 13.3333 3.53846 12.5 3.53846C11.6667 3.53846 10.9583 3.83761 10.375 4.4359C9.79167 5.03419 9.5 5.76068 9.5 6.61539ZM5.5 20.4615V8.15385V20.4615Z" fill="#121212"/>
</g>
</svg>
