<svg width="25" height="24" viewBox="0 0 25 24" fill="none" xmlns="http://www.w3.org/2000/svg">
<g id="Brands/Google">
<path id="Vector" d="M22.4992 11.235C22.4992 10.5417 22.443 9.84465 22.3231 9.1626H12.7031V13.09H18.212C17.9834 14.3567 17.2489 15.4772 16.1733 16.1892V18.7375H19.4599C21.3899 16.9612 22.4992 14.3379 22.4992 11.235Z" fill="#4285F4"/>
<path id="Vector_2" d="M12.7038 21.1996C15.4545 21.1996 17.7743 20.2965 19.4644 18.7375L16.1778 16.1892C15.2634 16.8113 14.0829 17.1636 12.7076 17.1636C10.0468 17.1636 7.79083 15.3685 6.98136 12.9551H3.58984V15.5821C5.3212 19.0261 8.84763 21.1996 12.7038 21.1996Z" fill="#34A853"/>
<path id="Vector_3" d="M6.97658 12.9553C6.54937 11.6886 6.54937 10.317 6.97658 9.05036V6.42334H3.58882C2.14227 9.30519 2.14227 12.7005 3.58882 15.5823L6.97658 12.9553Z" fill="#FBBC04"/>
<path id="Vector_4" d="M12.7038 4.83805C14.1579 4.81556 15.5632 5.3627 16.6163 6.36704L19.5281 3.45521C17.6843 1.72385 15.2372 0.771977 12.7038 0.801957C8.84763 0.801957 5.3212 2.97552 3.58984 6.42325L6.97761 9.05027C7.78333 6.63311 10.0431 4.83805 12.7038 4.83805Z" fill="#EA4335"/>
</g>
</svg>
