<svg width="429" height="142" viewBox="0 0 429 142" fill="none" xmlns="http://www.w3.org/2000/svg">
<path d="M16.435 23.947L36.066 48H26.887L8.395 25.689V48H0.69V1.1H8.395V22.138L26.217 1.1H35.396L16.435 23.947ZM51.2572 38.821L59.8332 14.5H67.5382L54.6742 49.072C51.4582 57.7373 46.0089 61.8467 38.3262 61.4V54.633C40.5595 54.767 42.3685 54.298 43.7532 53.226C45.1379 52.154 46.2992 50.4343 47.2372 48.067L47.5722 47.397L33.3682 14.5H41.2742L51.2572 38.821ZM78.8968 8.135C78.0035 9.02833 76.9315 9.475 75.6808 9.475C74.4301 9.475 73.3358 9.02833 72.3978 8.135C71.5045 7.197 71.0578 6.10266 71.0578 4.852C71.0578 3.60133 71.5045 2.52933 72.3978 1.636C73.2911 0.697997 74.3855 0.228996 75.6808 0.228996C76.9761 0.228996 78.0705 0.697997 78.9638 1.636C79.8571 2.52933 80.3038 3.60133 80.3038 4.852C80.3038 6.10266 79.8348 7.197 78.8968 8.135ZM79.2988 48H72.0628V14.5H79.2988V48ZM101.1 39.96L110.413 14.5H118.319L105.254 48H96.8795L83.8145 14.5H91.7205L101.1 39.96ZM8.395 81.1V120.63H27.49V128H0.69V81.1H8.395ZM54.926 112.456V94.5H62.162V128H54.926V123.712C52.6926 127.151 49.231 128.871 44.541 128.871C40.655 128.871 37.5283 127.643 35.161 125.186C32.8383 122.685 31.677 119.312 31.677 115.069V94.5H38.913V114.332C38.913 116.833 39.583 118.754 40.923 120.094C42.263 121.434 44.0943 122.104 46.417 122.104C49.0523 122.104 51.1293 121.3 52.648 119.692C54.1666 118.039 54.926 115.627 54.926 112.456ZM88.0433 110.848L100.572 128H92.1973L83.8893 116.543L75.5143 128H67.0723L79.6683 110.781L67.7423 94.5H76.1173L83.8223 105.086L91.5273 94.5H99.9693L88.0433 110.848ZM135.372 114.332H108.706C109.242 116.833 110.448 118.776 112.324 120.161C114.245 121.546 116.612 122.238 119.426 122.238C123.223 122.238 126.104 120.853 128.069 118.084L134.032 121.568C130.771 126.437 125.88 128.871 119.359 128.871C113.954 128.871 109.555 127.218 106.16 123.913C102.81 120.563 101.135 116.342 101.135 111.25C101.135 106.292 102.788 102.116 106.093 98.721C109.354 95.3263 113.597 93.629 118.823 93.629C123.692 93.629 127.712 95.3487 130.883 98.788C134.054 102.227 135.64 106.404 135.64 111.317C135.64 112.21 135.551 113.215 135.372 114.332ZM108.639 108.436H128.337C127.846 105.801 126.729 103.768 124.987 102.339C123.29 100.91 121.213 100.195 118.756 100.195C116.076 100.195 113.843 100.932 112.056 102.406C110.269 103.88 109.13 105.89 108.639 108.436ZM170.08 103.679C172.135 104.751 173.743 106.247 174.904 108.168C176.065 110.044 176.646 112.188 176.646 114.6C176.646 118.441 175.284 121.635 172.559 124.181C169.834 126.727 166.507 128 162.576 128H142.476V81.1H161.102C164.943 81.1 168.182 82.3507 170.817 84.852C173.497 87.3533 174.837 90.4353 174.837 94.098C174.837 98.118 173.251 101.312 170.08 103.679ZM161.102 88.336H150.181V100.664H161.102C162.799 100.664 164.229 100.083 165.39 98.922C166.551 97.716 167.132 96.242 167.132 94.5C167.132 92.758 166.551 91.3063 165.39 90.145C164.229 88.939 162.799 88.336 161.102 88.336ZM150.181 120.764H162.576C164.363 120.764 165.859 120.139 167.065 118.888C168.316 117.593 168.941 116.029 168.941 114.198C168.941 112.367 168.316 110.826 167.065 109.575C165.859 108.28 164.363 107.632 162.576 107.632H150.181V120.764ZM211.569 123.779C208.174 127.174 203.998 128.871 199.04 128.871C194.082 128.871 189.906 127.174 186.511 123.779C183.072 120.34 181.352 116.163 181.352 111.25C181.352 106.337 183.072 102.16 186.511 98.721C189.906 95.3263 194.082 93.629 199.04 93.629C203.998 93.629 208.174 95.3263 211.569 98.721C215.008 102.16 216.728 106.337 216.728 111.25C216.728 116.163 215.008 120.34 211.569 123.779ZM188.588 111.25C188.588 114.287 189.593 116.811 191.603 118.821C193.613 120.831 196.092 121.836 199.04 121.836C201.988 121.836 204.467 120.831 206.477 118.821C208.487 116.811 209.492 114.287 209.492 111.25C209.492 108.213 208.487 105.689 206.477 103.679C204.467 101.669 201.988 100.664 199.04 100.664C196.092 100.664 193.613 101.669 191.603 103.679C189.593 105.689 188.588 108.213 188.588 111.25ZM245.85 112.456V94.5H253.086V128H245.85V123.712C243.616 127.151 240.155 128.871 235.465 128.871C231.579 128.871 228.452 127.643 226.085 125.186C223.762 122.685 222.601 119.312 222.601 115.069V94.5H229.837V114.332C229.837 116.833 230.507 118.754 231.847 120.094C233.187 121.434 235.018 122.104 237.341 122.104C239.976 122.104 242.053 121.3 243.572 119.692C245.09 118.039 245.85 115.627 245.85 112.456ZM288.079 99.324V94.5H295.315V141.4H288.079V123.243C285.355 126.995 281.446 128.871 276.354 128.871C271.754 128.871 267.823 127.174 264.562 123.779C261.302 120.384 259.671 116.208 259.671 111.25C259.671 106.337 261.302 102.183 264.562 98.788C267.868 95.3487 271.798 93.629 276.354 93.629C281.446 93.629 285.355 95.5273 288.079 99.324ZM269.922 118.955C271.932 120.965 274.456 121.97 277.493 121.97C280.531 121.97 283.054 120.965 285.064 118.955C287.074 116.9 288.079 114.332 288.079 111.25C288.079 108.168 287.074 105.622 285.064 103.612C283.054 101.557 280.531 100.53 277.493 100.53C274.456 100.53 271.932 101.557 269.922 103.612C267.912 105.622 266.907 108.168 266.907 111.25C266.907 114.287 267.912 116.856 269.922 118.955ZM326.328 112.456V94.5H333.564V128H326.328V123.712C324.095 127.151 320.633 128.871 315.943 128.871C312.057 128.871 308.931 127.643 306.563 125.186C304.241 122.685 303.079 119.312 303.079 115.069V94.5H310.315V114.332C310.315 116.833 310.985 118.754 312.325 120.094C313.665 121.434 315.497 122.104 317.819 122.104C320.455 122.104 322.532 121.3 324.05 119.692C325.569 118.039 326.328 115.627 326.328 112.456ZM374.387 114.332H347.721C348.257 116.833 349.463 118.776 351.339 120.161C353.259 121.546 355.627 122.238 358.441 122.238C362.237 122.238 365.118 120.853 367.084 118.084L373.047 121.568C369.786 126.437 364.895 128.871 358.374 128.871C352.969 128.871 348.569 127.218 345.175 123.913C341.825 120.563 340.15 116.342 340.15 111.25C340.15 106.292 341.802 102.116 345.108 98.721C348.368 95.3263 352.612 93.629 357.838 93.629C362.706 93.629 366.726 95.3487 369.898 98.788C373.069 102.227 374.655 106.404 374.655 111.317C374.655 112.21 374.565 113.215 374.387 114.332ZM347.654 108.436H367.352C366.86 105.801 365.744 103.768 364.002 102.339C362.304 100.91 360.227 100.195 357.771 100.195C355.091 100.195 352.857 100.932 351.071 102.406C349.284 103.88 348.145 105.89 347.654 108.436ZM398.668 94.5V101.468H390.36V117.548C390.36 118.933 390.673 119.938 391.298 120.563C391.923 121.144 392.839 121.479 394.045 121.568C395.296 121.613 396.837 121.59 398.668 121.501V128C393.129 128.67 389.154 128.201 386.742 126.593C384.33 124.94 383.124 121.925 383.124 117.548V101.468H376.96V94.5H383.124V87.264L390.36 85.12V94.5H398.668ZM410.487 103.746C410.487 104.773 411.023 105.622 412.095 106.292C413.167 106.917 414.73 107.52 416.785 108.101C418.348 108.458 419.71 108.838 420.872 109.24C422.033 109.642 423.261 110.245 424.557 111.049C425.852 111.808 426.835 112.836 427.505 114.131C428.219 115.382 428.554 116.856 428.51 118.553C428.51 121.769 427.259 124.293 424.758 126.124C422.256 127.955 419.152 128.871 415.445 128.871C412.139 128.871 409.303 128.179 406.936 126.794C404.568 125.409 402.849 123.489 401.777 121.032L408.008 117.414C409.124 120.63 411.603 122.238 415.445 122.238C419.241 122.238 421.14 120.987 421.14 118.486C421.14 116.655 419.018 115.225 414.775 114.198C413.167 113.796 411.804 113.394 410.688 112.992C409.616 112.59 408.41 112.009 407.07 111.25C405.774 110.491 404.769 109.486 404.055 108.235C403.385 106.984 403.072 105.533 403.117 103.88C403.117 100.798 404.278 98.319 406.601 96.443C408.968 94.567 411.894 93.629 415.378 93.629C418.147 93.629 420.604 94.2543 422.748 95.505C424.936 96.711 426.611 98.4083 427.773 100.597L421.676 104.014C420.559 101.468 418.46 100.195 415.378 100.195C413.948 100.195 412.765 100.508 411.827 101.133C410.933 101.758 410.487 102.629 410.487 103.746Z" fill="#121212"/>
</svg>
