<svg width="562" height="17" viewBox="0 0 562 17" fill="none" xmlns="http://www.w3.org/2000/svg">
<line y1="8" x2="262.5" y2="8" stroke="#D2D2D7"/>
<path d="M281.346 11.118C280.627 11.818 279.759 12.168 278.742 12.168C277.706 12.168 276.833 11.818 276.124 11.118C275.415 10.4087 275.06 9.536 275.06 8.5C275.06 7.464 275.415 6.596 276.124 5.896C276.833 5.18667 277.706 4.832 278.742 4.832C279.769 4.832 280.637 5.18667 281.346 5.896C282.065 6.596 282.424 7.464 282.424 8.5C282.424 9.52667 282.065 10.3993 281.346 11.118ZM276.782 10.474C277.314 11.006 277.967 11.272 278.742 11.272C279.517 11.272 280.17 11.006 280.702 10.474C281.234 9.92333 281.5 9.26533 281.5 8.5C281.5 7.72533 281.234 7.072 280.702 6.54C280.17 5.99867 279.517 5.728 278.742 5.728C277.967 5.728 277.314 5.99867 276.782 6.54C276.25 7.072 275.984 7.72533 275.984 8.5C275.984 9.26533 276.25 9.92333 276.782 10.474ZM284.894 5V6.162C285.324 5.31267 286.061 4.888 287.106 4.888V5.784C286.434 5.784 285.898 5.98 285.496 6.372C285.095 6.75467 284.894 7.33333 284.894 8.108V12H283.97V5H284.894Z" fill="#D2D2D7"/>
<line x1="299.5" y1="8" x2="562" y2="8" stroke="#D2D2D7"/>
</svg>
