<svg width="360" height="360" viewBox="0 0 360 360" fill="none" xmlns="http://www.w3.org/2000/svg">
<path d="M66.0297 163.4H76.4037C80.001 163.4 83.003 164.692 85.4097 167.276C87.8164 169.835 89.0197 172.976 89.0197 176.7C89.0197 180.399 87.8164 183.553 85.4097 186.162C83.003 188.721 80.001 190 76.4037 190H66.0297V163.4ZM69.5637 186.656H76.4037C79.1144 186.656 81.331 185.706 83.0537 183.806C84.7764 181.881 85.6377 179.512 85.6377 176.7C85.6377 173.888 84.7764 171.519 83.0537 169.594C81.331 167.694 79.1144 166.744 76.4037 166.744H69.5637V186.656ZM96.2691 171V174.192C97.3584 171.836 99.3344 170.658 102.197 170.658V174.116C100.576 174.04 99.1824 174.471 98.0171 175.408C96.8517 176.345 96.2691 177.853 96.2691 179.93V190H92.9631V171H96.2691ZM107.104 167.542C106.47 167.542 105.938 167.327 105.508 166.896C105.077 166.465 104.862 165.946 104.862 165.338C104.862 164.73 105.077 164.211 105.508 163.78C105.938 163.324 106.47 163.096 107.104 163.096C107.712 163.096 108.231 163.324 108.662 163.78C109.092 164.211 109.308 164.73 109.308 165.338C109.308 165.946 109.092 166.465 108.662 166.896C108.231 167.327 107.712 167.542 107.104 167.542ZM108.738 190H105.432V171H108.738V190ZM132.021 182.02H116.099C116.429 183.692 117.201 185.009 118.417 185.972C119.633 186.909 121.153 187.378 122.977 187.378C125.485 187.378 127.309 186.453 128.449 184.604L131.261 186.2C129.387 189.063 126.6 190.494 122.901 190.494C119.912 190.494 117.455 189.557 115.529 187.682C113.655 185.757 112.717 183.363 112.717 180.5C112.717 177.612 113.642 175.231 115.491 173.356C117.341 171.456 119.735 170.506 122.673 170.506C125.46 170.506 127.727 171.494 129.475 173.47C131.249 175.395 132.135 177.751 132.135 180.538C132.135 181.019 132.097 181.513 132.021 182.02ZM122.673 173.622C120.925 173.622 119.456 174.116 118.265 175.104C117.1 176.092 116.378 177.435 116.099 179.132H128.791C128.513 177.384 127.816 176.029 126.701 175.066C125.587 174.103 124.244 173.622 122.673 173.622ZM151.631 174.268V163.4H154.937V190H151.631V186.732C150.009 189.24 147.615 190.494 144.449 190.494C141.763 190.494 139.496 189.531 137.647 187.606C135.772 185.655 134.835 183.287 134.835 180.5C134.835 177.739 135.772 175.383 137.647 173.432C139.521 171.481 141.789 170.506 144.449 170.506C147.615 170.506 150.009 171.76 151.631 174.268ZM144.867 187.302C146.792 187.302 148.401 186.656 149.693 185.364C150.985 184.021 151.631 182.4 151.631 180.5C151.631 178.575 150.985 176.966 149.693 175.674C148.401 174.357 146.792 173.698 144.867 173.698C142.967 173.698 141.371 174.357 140.079 175.674C138.787 176.966 138.141 178.575 138.141 180.5C138.141 182.4 138.787 184.021 140.079 185.364C141.371 186.656 142.967 187.302 144.867 187.302ZM185.102 163.4V166.744H173.322V175.37H184.608V178.714H173.322V190H169.788V163.4H185.102ZM192.345 190H189.039V162.26H192.345V190ZM213.425 187.606C211.5 189.531 209.131 190.494 206.319 190.494C203.507 190.494 201.138 189.531 199.213 187.606C197.288 185.681 196.325 183.312 196.325 180.5C196.325 177.688 197.288 175.319 199.213 173.394C201.138 171.469 203.507 170.506 206.319 170.506C209.131 170.506 211.5 171.469 213.425 173.394C215.376 175.345 216.351 177.713 216.351 180.5C216.351 183.287 215.376 185.655 213.425 187.606ZM206.319 187.264C208.219 187.264 209.815 186.618 211.107 185.326C212.399 184.034 213.045 182.425 213.045 180.5C213.045 178.575 212.399 176.966 211.107 175.674C209.815 174.382 208.219 173.736 206.319 173.736C204.444 173.736 202.861 174.382 201.569 175.674C200.277 176.966 199.631 178.575 199.631 180.5C199.631 182.425 200.277 184.034 201.569 185.326C202.861 186.618 204.444 187.264 206.319 187.264ZM237.708 185.478L241.888 171H245.346L239.456 190H236.074L231.628 175.94L227.182 190H223.8L217.91 171H221.368L225.548 185.44L230.032 171H233.224L237.708 185.478ZM266.246 182.02H250.324C250.653 183.692 251.426 185.009 252.642 185.972C253.858 186.909 255.378 187.378 257.202 187.378C259.71 187.378 261.534 186.453 262.674 184.604L265.486 186.2C263.611 189.063 260.825 190.494 257.126 190.494C254.137 190.494 251.679 189.557 249.754 187.682C247.879 185.757 246.942 183.363 246.942 180.5C246.942 177.612 247.867 175.231 249.716 173.356C251.565 171.456 253.959 170.506 256.898 170.506C259.685 170.506 261.952 171.494 263.7 173.47C265.473 175.395 266.36 177.751 266.36 180.538C266.36 181.019 266.322 181.513 266.246 182.02ZM256.898 173.622C255.15 173.622 253.681 174.116 252.49 175.104C251.325 176.092 250.603 177.435 250.324 179.132H263.016C262.737 177.384 262.041 176.029 260.926 175.066C259.811 174.103 258.469 173.622 256.898 173.622ZM273.466 171V174.192C274.556 171.836 276.532 170.658 279.394 170.658V174.116C277.773 174.04 276.38 174.471 275.214 175.408C274.049 176.345 273.466 177.853 273.466 179.93V190H270.16V171H273.466ZM284.774 176.13C284.774 177.346 286.028 178.296 288.536 178.98C289.473 179.183 290.259 179.398 290.892 179.626C291.551 179.829 292.26 180.145 293.02 180.576C293.805 181.007 294.401 181.577 294.806 182.286C295.211 182.995 295.414 183.831 295.414 184.794C295.414 186.517 294.743 187.897 293.4 188.936C292.057 189.975 290.36 190.494 288.308 190.494C286.484 190.494 284.901 190.101 283.558 189.316C282.241 188.505 281.303 187.416 280.746 186.048L283.596 184.414C283.9 185.326 284.47 186.048 285.306 186.58C286.142 187.112 287.143 187.378 288.308 187.378C289.448 187.378 290.36 187.163 291.044 186.732C291.728 186.301 292.07 185.655 292.07 184.794C292.07 183.502 290.816 182.565 288.308 181.982C287.472 181.754 286.839 181.577 286.408 181.45C285.977 181.323 285.382 181.095 284.622 180.766C283.887 180.437 283.33 180.095 282.95 179.74C282.57 179.36 282.215 178.866 281.886 178.258C281.582 177.625 281.43 176.928 281.43 176.168C281.43 174.521 282.063 173.166 283.33 172.102C284.622 171.038 286.231 170.506 288.156 170.506C289.701 170.506 291.069 170.861 292.26 171.57C293.476 172.254 294.388 173.217 294.996 174.458L292.222 176.016C291.538 174.395 290.183 173.584 288.156 173.584C287.193 173.584 286.383 173.812 285.724 174.268C285.091 174.724 284.774 175.345 284.774 176.13Z" fill="#121212"/>
<path d="M149 323V325L135 325L138.641 328.5L137.113 330L131 324L137.113 318L138.641 319.5L135 323L149 323Z" fill="black"/>
<path d="M160.848 328.708C159.771 328.708 158.853 328.468 158.096 327.988C157.349 327.497 156.827 326.82 156.528 325.956L158.112 325.028C158.56 326.287 159.488 326.916 160.896 326.916C161.579 326.916 162.096 326.783 162.448 326.516C162.8 326.249 162.976 325.892 162.976 325.444C162.976 324.996 162.789 324.649 162.416 324.404C162.043 324.159 161.381 323.892 160.432 323.604C159.461 323.316 158.677 322.975 158.08 322.58C157.355 322.068 156.992 321.316 156.992 320.324C156.992 319.332 157.344 318.548 158.048 317.972C158.741 317.385 159.589 317.092 160.592 317.092C161.477 317.092 162.256 317.311 162.928 317.748C163.611 318.175 164.133 318.777 164.496 319.556L162.944 320.452C162.475 319.407 161.691 318.884 160.592 318.884C160.059 318.884 159.632 319.012 159.312 319.268C158.992 319.513 158.832 319.849 158.832 320.276C158.832 320.692 158.992 321.023 159.312 321.268C159.632 321.503 160.224 321.753 161.088 322.02C161.621 322.201 161.931 322.308 162.016 322.34C162.155 322.383 162.432 322.489 162.848 322.66C163.189 322.799 163.461 322.948 163.664 323.108C164.496 323.759 164.88 324.527 164.816 325.412C164.816 326.425 164.448 327.231 163.712 327.828C162.997 328.415 162.043 328.708 160.848 328.708ZM170.913 320.292C171.841 320.292 172.582 320.591 173.137 321.188C173.702 321.775 173.985 322.575 173.985 323.588V328.5H172.257V323.764C172.257 323.167 172.097 322.708 171.777 322.388C171.457 322.068 171.02 321.908 170.465 321.908C169.836 321.908 169.34 322.105 168.977 322.5C168.614 322.884 168.433 323.455 168.433 324.212V328.5H166.705V317.3H168.433V321.524C168.966 320.703 169.793 320.292 170.913 320.292ZM183.013 327.492C182.203 328.303 181.205 328.708 180.021 328.708C178.837 328.708 177.84 328.303 177.029 327.492C176.208 326.671 175.797 325.673 175.797 324.5C175.797 323.327 176.208 322.329 177.029 321.508C177.84 320.697 178.837 320.292 180.021 320.292C181.205 320.292 182.203 320.697 183.013 321.508C183.835 322.329 184.245 323.327 184.245 324.5C184.245 325.673 183.835 326.671 183.013 327.492ZM177.525 324.5C177.525 325.225 177.765 325.828 178.245 326.308C178.725 326.788 179.317 327.028 180.021 327.028C180.725 327.028 181.317 326.788 181.797 326.308C182.277 325.828 182.517 325.225 182.517 324.5C182.517 323.775 182.277 323.172 181.797 322.692C181.317 322.212 180.725 321.972 180.021 321.972C179.317 321.972 178.725 322.212 178.245 322.692C177.765 323.172 177.525 323.775 177.525 324.5ZM190.736 320.292C191.824 320.292 192.763 320.703 193.552 321.524C194.331 322.335 194.72 323.327 194.72 324.5C194.72 325.684 194.331 326.681 193.552 327.492C192.773 328.303 191.835 328.708 190.736 328.708C189.531 328.708 188.597 328.26 187.936 327.364V331.7H186.208V320.5H187.936V321.652C188.587 320.745 189.52 320.292 190.736 320.292ZM188.656 326.34C189.136 326.82 189.739 327.06 190.464 327.06C191.189 327.06 191.792 326.82 192.272 326.34C192.752 325.849 192.992 325.236 192.992 324.5C192.992 323.764 192.752 323.156 192.272 322.676C191.792 322.185 191.189 321.94 190.464 321.94C189.739 321.94 189.136 322.185 188.656 322.676C188.176 323.156 187.936 323.764 187.936 324.5C187.936 325.225 188.176 325.839 188.656 326.34ZM205.294 320.292C206.222 320.292 206.963 320.591 207.518 321.188C208.083 321.775 208.366 322.575 208.366 323.588V328.5H206.638V323.764C206.638 323.167 206.478 322.708 206.158 322.388C205.838 322.068 205.401 321.908 204.846 321.908C204.217 321.908 203.721 322.105 203.358 322.5C202.995 322.884 202.814 323.455 202.814 324.212V328.5H201.086V320.5H202.814V321.524C203.347 320.703 204.174 320.292 205.294 320.292ZM217.395 327.492C216.584 328.303 215.587 328.708 214.403 328.708C213.219 328.708 212.221 328.303 211.411 327.492C210.589 326.671 210.179 325.673 210.179 324.5C210.179 323.327 210.589 322.329 211.411 321.508C212.221 320.697 213.219 320.292 214.403 320.292C215.587 320.292 216.584 320.697 217.395 321.508C218.216 322.329 218.627 323.327 218.627 324.5C218.627 325.673 218.216 326.671 217.395 327.492ZM211.907 324.5C211.907 325.225 212.147 325.828 212.627 326.308C213.107 326.788 213.699 327.028 214.403 327.028C215.107 327.028 215.699 326.788 216.179 326.308C216.659 325.828 216.899 325.225 216.899 324.5C216.899 323.775 216.659 323.172 216.179 322.692C215.699 322.212 215.107 321.972 214.403 321.972C213.699 321.972 213.107 322.212 212.627 322.692C212.147 323.172 211.907 323.775 211.907 324.5ZM227.925 326.02L229.493 320.5H231.317L228.805 328.5H227.109L225.445 323.108L223.765 328.5H222.069L219.557 320.5H221.381L222.933 326.02L224.613 320.5H226.261L227.925 326.02Z" fill="#121212"/>
<path d="M0 360H-1V361H0V360ZM360 359H0V361H360V359ZM1 360V0H-1V360H1Z" fill="#121212" mask="url(#path-1-inside-1_158_1022)"/>
</svg>
