<svg width="360" height="360" viewBox="0 0 360 360" fill="none" xmlns="http://www.w3.org/2000/svg">
<path d="M82.9208 163.4V166.744H71.1408V175.37H82.4268V178.714H71.1408V190H67.6068V163.4H82.9208ZM90.1646 171V174.192C91.2539 171.836 93.2299 170.658 96.0926 170.658V174.116C94.4713 174.04 93.0779 174.471 91.9126 175.408C90.7473 176.345 90.1646 177.853 90.1646 179.93V190H86.8586V171H90.1646ZM116.528 182.02H100.606C100.936 183.692 101.708 185.009 102.924 185.972C104.14 186.909 105.66 187.378 107.484 187.378C109.992 187.378 111.816 186.453 112.956 184.604L115.768 186.2C113.894 189.063 111.107 190.494 107.408 190.494C104.419 190.494 101.962 189.557 100.036 187.682C98.1616 185.757 97.2243 183.363 97.2243 180.5C97.2243 177.612 98.1489 175.231 99.9983 173.356C101.848 171.456 104.242 170.506 107.18 170.506C109.967 170.506 112.234 171.494 113.982 173.47C115.756 175.395 116.642 177.751 116.642 180.538C116.642 181.019 116.604 181.513 116.528 182.02ZM107.18 173.622C105.432 173.622 103.963 174.116 102.772 175.104C101.607 176.092 100.885 177.435 100.606 179.132H113.298C113.02 177.384 112.323 176.029 111.208 175.066C110.094 174.103 108.751 173.622 107.18 173.622ZM122.55 176.13C122.55 177.346 123.804 178.296 126.312 178.98C127.25 179.183 128.035 179.398 128.668 179.626C129.327 179.829 130.036 180.145 130.796 180.576C131.582 181.007 132.177 181.577 132.582 182.286C132.988 182.995 133.19 183.831 133.19 184.794C133.19 186.517 132.519 187.897 131.176 188.936C129.834 189.975 128.136 190.494 126.084 190.494C124.26 190.494 122.677 190.101 121.334 189.316C120.017 188.505 119.08 187.416 118.522 186.048L121.372 184.414C121.676 185.326 122.246 186.048 123.082 186.58C123.918 187.112 124.919 187.378 126.084 187.378C127.224 187.378 128.136 187.163 128.82 186.732C129.504 186.301 129.846 185.655 129.846 184.794C129.846 183.502 128.592 182.565 126.084 181.982C125.248 181.754 124.615 181.577 124.184 181.45C123.754 181.323 123.158 181.095 122.398 180.766C121.664 180.437 121.106 180.095 120.726 179.74C120.346 179.36 119.992 178.866 119.662 178.258C119.358 177.625 119.206 176.928 119.206 176.168C119.206 174.521 119.84 173.166 121.106 172.102C122.398 171.038 124.007 170.506 125.932 170.506C127.478 170.506 128.846 170.861 130.036 171.57C131.252 172.254 132.164 173.217 132.772 174.458L129.998 176.016C129.314 174.395 127.959 173.584 125.932 173.584C124.97 173.584 124.159 173.812 123.5 174.268C122.867 174.724 122.55 175.345 122.55 176.13ZM146.381 170.506C148.61 170.506 150.396 171.215 151.739 172.634C153.082 174.027 153.753 175.927 153.753 178.334V190H150.447V178.524C150.447 177.004 150.029 175.813 149.193 174.952C148.357 174.091 147.204 173.66 145.735 173.66C144.038 173.66 142.695 174.192 141.707 175.256C140.719 176.295 140.225 177.853 140.225 179.93V190H136.919V163.4H140.225V173.736C141.542 171.583 143.594 170.506 146.381 170.506ZM183.524 163.4V166.744H171.744V175.37H183.03V178.714H171.744V190H168.21V163.4H183.524ZM190.768 190H187.462V162.26H190.768V190ZM211.848 187.606C209.922 189.531 207.554 190.494 204.742 190.494C201.93 190.494 199.561 189.531 197.636 187.606C195.71 185.681 194.748 183.312 194.748 180.5C194.748 177.688 195.71 175.319 197.636 173.394C199.561 171.469 201.93 170.506 204.742 170.506C207.554 170.506 209.922 171.469 211.848 173.394C213.798 175.345 214.774 177.713 214.774 180.5C214.774 183.287 213.798 185.655 211.848 187.606ZM204.742 187.264C206.642 187.264 208.238 186.618 209.53 185.326C210.822 184.034 211.468 182.425 211.468 180.5C211.468 178.575 210.822 176.966 209.53 175.674C208.238 174.382 206.642 173.736 204.742 173.736C202.867 173.736 201.284 174.382 199.992 175.674C198.7 176.966 198.054 178.575 198.054 180.5C198.054 182.425 198.7 184.034 199.992 185.326C201.284 186.618 202.867 187.264 204.742 187.264ZM236.131 185.478L240.311 171H243.769L237.879 190H234.497L230.051 175.94L225.605 190H222.223L216.333 171H219.791L223.971 185.44L228.455 171H231.647L236.131 185.478ZM264.669 182.02H248.747C249.076 183.692 249.849 185.009 251.065 185.972C252.281 186.909 253.801 187.378 255.625 187.378C258.133 187.378 259.957 186.453 261.097 184.604L263.909 186.2C262.034 189.063 259.248 190.494 255.549 190.494C252.56 190.494 250.102 189.557 248.177 187.682C246.302 185.757 245.365 183.363 245.365 180.5C245.365 177.612 246.29 175.231 248.139 173.356C249.988 171.456 252.382 170.506 255.321 170.506C258.108 170.506 260.375 171.494 262.123 173.47C263.896 175.395 264.783 177.751 264.783 180.538C264.783 181.019 264.745 181.513 264.669 182.02ZM255.321 173.622C253.573 173.622 252.104 174.116 250.913 175.104C249.748 176.092 249.026 177.435 248.747 179.132H261.439C261.16 177.384 260.464 176.029 259.349 175.066C258.234 174.103 256.892 173.622 255.321 173.622ZM271.889 171V174.192C272.979 171.836 274.955 170.658 277.817 170.658V174.116C276.196 174.04 274.803 174.471 273.637 175.408C272.472 176.345 271.889 177.853 271.889 179.93V190H268.583V171H271.889ZM283.197 176.13C283.197 177.346 284.451 178.296 286.959 178.98C287.896 179.183 288.682 179.398 289.315 179.626C289.974 179.829 290.683 180.145 291.443 180.576C292.228 181.007 292.824 181.577 293.229 182.286C293.634 182.995 293.837 183.831 293.837 184.794C293.837 186.517 293.166 187.897 291.823 188.936C290.48 189.975 288.783 190.494 286.731 190.494C284.907 190.494 283.324 190.101 281.981 189.316C280.664 188.505 279.726 187.416 279.169 186.048L282.019 184.414C282.323 185.326 282.893 186.048 283.729 186.58C284.565 187.112 285.566 187.378 286.731 187.378C287.871 187.378 288.783 187.163 289.467 186.732C290.151 186.301 290.493 185.655 290.493 184.794C290.493 183.502 289.239 182.565 286.731 181.982C285.895 181.754 285.262 181.577 284.831 181.45C284.4 181.323 283.805 181.095 283.045 180.766C282.31 180.437 281.753 180.095 281.373 179.74C280.993 179.36 280.638 178.866 280.309 178.258C280.005 177.625 279.853 176.928 279.853 176.168C279.853 174.521 280.486 173.166 281.753 172.102C283.045 171.038 284.654 170.506 286.579 170.506C288.124 170.506 289.492 170.861 290.683 171.57C291.899 172.254 292.811 173.217 293.419 174.458L290.645 176.016C289.961 174.395 288.606 173.584 286.579 173.584C285.616 173.584 284.806 173.812 284.147 174.268C283.514 174.724 283.197 175.345 283.197 176.13Z" fill="#121212"/>
<path d="M132.848 328.708C131.771 328.708 130.853 328.468 130.096 327.988C129.349 327.497 128.827 326.82 128.528 325.956L130.112 325.028C130.56 326.287 131.488 326.916 132.896 326.916C133.579 326.916 134.096 326.783 134.448 326.516C134.8 326.249 134.976 325.892 134.976 325.444C134.976 324.996 134.789 324.649 134.416 324.404C134.043 324.159 133.381 323.892 132.432 323.604C131.461 323.316 130.677 322.975 130.08 322.58C129.355 322.068 128.992 321.316 128.992 320.324C128.992 319.332 129.344 318.548 130.048 317.972C130.741 317.385 131.589 317.092 132.592 317.092C133.477 317.092 134.256 317.311 134.928 317.748C135.611 318.175 136.133 318.777 136.496 319.556L134.944 320.452C134.475 319.407 133.691 318.884 132.592 318.884C132.059 318.884 131.632 319.012 131.312 319.268C130.992 319.513 130.832 319.849 130.832 320.276C130.832 320.692 130.992 321.023 131.312 321.268C131.632 321.503 132.224 321.753 133.088 322.02C133.621 322.201 133.931 322.308 134.016 322.34C134.155 322.383 134.432 322.489 134.848 322.66C135.189 322.799 135.461 322.948 135.664 323.108C136.496 323.759 136.88 324.527 136.816 325.412C136.816 326.425 136.448 327.231 135.712 327.828C134.997 328.415 134.043 328.708 132.848 328.708ZM142.913 320.292C143.841 320.292 144.582 320.591 145.137 321.188C145.702 321.775 145.985 322.575 145.985 323.588V328.5H144.257V323.764C144.257 323.167 144.097 322.708 143.777 322.388C143.457 322.068 143.02 321.908 142.465 321.908C141.836 321.908 141.34 322.105 140.977 322.5C140.614 322.884 140.433 323.455 140.433 324.212V328.5H138.705V317.3H140.433V321.524C140.966 320.703 141.793 320.292 142.913 320.292ZM155.013 327.492C154.203 328.303 153.205 328.708 152.021 328.708C150.837 328.708 149.84 328.303 149.029 327.492C148.208 326.671 147.797 325.673 147.797 324.5C147.797 323.327 148.208 322.329 149.029 321.508C149.84 320.697 150.837 320.292 152.021 320.292C153.205 320.292 154.203 320.697 155.013 321.508C155.835 322.329 156.245 323.327 156.245 324.5C156.245 325.673 155.835 326.671 155.013 327.492ZM149.525 324.5C149.525 325.225 149.765 325.828 150.245 326.308C150.725 326.788 151.317 327.028 152.021 327.028C152.725 327.028 153.317 326.788 153.797 326.308C154.277 325.828 154.517 325.225 154.517 324.5C154.517 323.775 154.277 323.172 153.797 322.692C153.317 322.212 152.725 321.972 152.021 321.972C151.317 321.972 150.725 322.212 150.245 322.692C149.765 323.172 149.525 323.775 149.525 324.5ZM162.736 320.292C163.824 320.292 164.763 320.703 165.552 321.524C166.331 322.335 166.72 323.327 166.72 324.5C166.72 325.684 166.331 326.681 165.552 327.492C164.773 328.303 163.835 328.708 162.736 328.708C161.531 328.708 160.597 328.26 159.936 327.364V331.7H158.208V320.5H159.936V321.652C160.587 320.745 161.52 320.292 162.736 320.292ZM160.656 326.34C161.136 326.82 161.739 327.06 162.464 327.06C163.189 327.06 163.792 326.82 164.272 326.34C164.752 325.849 164.992 325.236 164.992 324.5C164.992 323.764 164.752 323.156 164.272 322.676C163.792 322.185 163.189 321.94 162.464 321.94C161.739 321.94 161.136 322.185 160.656 322.676C160.176 323.156 159.936 323.764 159.936 324.5C159.936 325.225 160.176 325.839 160.656 326.34ZM177.294 320.292C178.222 320.292 178.963 320.591 179.518 321.188C180.083 321.775 180.366 322.575 180.366 323.588V328.5H178.638V323.764C178.638 323.167 178.478 322.708 178.158 322.388C177.838 322.068 177.401 321.908 176.846 321.908C176.217 321.908 175.721 322.105 175.358 322.5C174.995 322.884 174.814 323.455 174.814 324.212V328.5H173.086V320.5H174.814V321.524C175.347 320.703 176.174 320.292 177.294 320.292ZM189.395 327.492C188.584 328.303 187.587 328.708 186.403 328.708C185.219 328.708 184.221 328.303 183.411 327.492C182.589 326.671 182.179 325.673 182.179 324.5C182.179 323.327 182.589 322.329 183.411 321.508C184.221 320.697 185.219 320.292 186.403 320.292C187.587 320.292 188.584 320.697 189.395 321.508C190.216 322.329 190.627 323.327 190.627 324.5C190.627 325.673 190.216 326.671 189.395 327.492ZM183.907 324.5C183.907 325.225 184.147 325.828 184.627 326.308C185.107 326.788 185.699 327.028 186.403 327.028C187.107 327.028 187.699 326.788 188.179 326.308C188.659 325.828 188.899 325.225 188.899 324.5C188.899 323.775 188.659 323.172 188.179 322.692C187.699 322.212 187.107 321.972 186.403 321.972C185.699 321.972 185.107 322.212 184.627 322.692C184.147 323.172 183.907 323.775 183.907 324.5ZM199.925 326.02L201.493 320.5H203.317L200.805 328.5H199.109L197.445 323.108L195.765 328.5H194.069L191.557 320.5H193.381L194.933 326.02L196.613 320.5H198.261L199.925 326.02Z" fill="#121212"/>
<path d="M223.14 318L221.681 319.504L225 323H211V325H225L221.702 328.504L223.167 330L229 323.986L223.14 318Z" fill="black"/>
<path d="M0 360H-1V361H0V360ZM360 359H0V361H360V359ZM1 360V0H-1V360H1Z" fill="#121212" mask="url(#path-1-inside-1_158_1014)"/>
</svg>
