<svg width="360" height="360" viewBox="0 0 360 360" fill="none" xmlns="http://www.w3.org/2000/svg">
<path d="M105.149 163.4V166.744H93.3694V175.37H104.655V178.714H93.3694V190H89.8354V163.4H105.149ZM112.393 171V174.192C113.482 171.836 115.458 170.658 118.321 170.658V174.116C116.7 174.04 115.306 174.471 114.141 175.408C112.976 176.345 112.393 177.853 112.393 179.93V190H109.087V171H112.393ZM138.757 182.02H122.835C123.164 183.692 123.937 185.009 125.153 185.972C126.369 186.909 127.889 187.378 129.713 187.378C132.221 187.378 134.045 186.453 135.185 184.604L137.997 186.2C136.122 189.063 133.335 190.494 129.637 190.494C126.647 190.494 124.19 189.557 122.265 187.682C120.39 185.757 119.453 183.363 119.453 180.5C119.453 177.612 120.377 175.231 122.227 173.356C124.076 171.456 126.47 170.506 129.409 170.506C132.195 170.506 134.463 171.494 136.211 173.47C137.984 175.395 138.871 177.751 138.871 180.538C138.871 181.019 138.833 181.513 138.757 182.02ZM129.409 173.622C127.661 173.622 126.191 174.116 125.001 175.104C123.835 176.092 123.113 177.435 122.835 179.132H135.527C135.248 177.384 134.551 176.029 133.437 175.066C132.322 174.103 130.979 173.622 129.409 173.622ZM144.779 176.13C144.779 177.346 146.033 178.296 148.541 178.98C149.478 179.183 150.264 179.398 150.897 179.626C151.556 179.829 152.265 180.145 153.025 180.576C153.81 181.007 154.406 181.577 154.811 182.286C155.216 182.995 155.419 183.831 155.419 184.794C155.419 186.517 154.748 187.897 153.405 188.936C152.062 189.975 150.365 190.494 148.313 190.494C146.489 190.494 144.906 190.101 143.563 189.316C142.246 188.505 141.308 187.416 140.751 186.048L143.601 184.414C143.905 185.326 144.475 186.048 145.311 186.58C146.147 187.112 147.148 187.378 148.313 187.378C149.453 187.378 150.365 187.163 151.049 186.732C151.733 186.301 152.075 185.655 152.075 184.794C152.075 183.502 150.821 182.565 148.313 181.982C147.477 181.754 146.844 181.577 146.413 181.45C145.982 181.323 145.387 181.095 144.627 180.766C143.892 180.437 143.335 180.095 142.955 179.74C142.575 179.36 142.22 178.866 141.891 178.258C141.587 177.625 141.435 176.928 141.435 176.168C141.435 174.521 142.068 173.166 143.335 172.102C144.627 171.038 146.236 170.506 148.161 170.506C149.706 170.506 151.074 170.861 152.265 171.57C153.481 172.254 154.393 173.217 155.001 174.458L152.227 176.016C151.543 174.395 150.188 173.584 148.161 173.584C147.198 173.584 146.388 173.812 145.729 174.268C145.096 174.724 144.779 175.345 144.779 176.13ZM168.61 170.506C170.839 170.506 172.625 171.215 173.968 172.634C175.31 174.027 175.982 175.927 175.982 178.334V190H172.676V178.524C172.676 177.004 172.258 175.813 171.422 174.952C170.586 174.091 169.433 173.66 167.964 173.66C166.266 173.66 164.924 174.192 163.936 175.256C162.948 176.295 162.454 177.853 162.454 179.93V190H159.148V163.4H162.454V173.736C163.771 171.583 165.823 170.506 168.61 170.506ZM198.837 182.02H182.915C183.244 183.692 184.017 185.009 185.233 185.972C186.449 186.909 187.969 187.378 189.793 187.378C192.301 187.378 194.125 186.453 195.265 184.604L198.077 186.2C196.202 189.063 193.416 190.494 189.717 190.494C186.728 190.494 184.27 189.557 182.345 187.682C180.47 185.757 179.533 183.363 179.533 180.5C179.533 177.612 180.458 175.231 182.307 173.356C184.156 171.456 186.55 170.506 189.489 170.506C192.276 170.506 194.543 171.494 196.291 173.47C198.064 175.395 198.951 177.751 198.951 180.538C198.951 181.019 198.913 181.513 198.837 182.02ZM189.489 173.622C187.741 173.622 186.272 174.116 185.081 175.104C183.916 176.092 183.194 177.435 182.915 179.132H195.607C195.328 177.384 194.632 176.029 193.517 175.066C192.402 174.103 191.06 173.622 189.489 173.622ZM212.213 170.506C214.442 170.506 216.228 171.215 217.571 172.634C218.914 174.027 219.585 175.927 219.585 178.334V190H216.279V178.524C216.279 177.004 215.861 175.813 215.025 174.952C214.189 174.091 213.036 173.66 211.567 173.66C209.87 173.66 208.527 174.192 207.539 175.256C206.551 176.295 206.057 177.853 206.057 179.93V190H202.751V171H206.057V173.736C207.374 171.583 209.426 170.506 212.213 170.506ZM242.44 182.02H226.518C226.848 183.692 227.62 185.009 228.836 185.972C230.052 186.909 231.572 187.378 233.396 187.378C235.904 187.378 237.728 186.453 238.868 184.604L241.68 186.2C239.806 189.063 237.019 190.494 233.32 190.494C230.331 190.494 227.874 189.557 225.948 187.682C224.074 185.757 223.136 183.363 223.136 180.5C223.136 177.612 224.061 175.231 225.91 173.356C227.76 171.456 230.154 170.506 233.092 170.506C235.879 170.506 238.146 171.494 239.894 173.47C241.668 175.395 242.554 177.751 242.554 180.538C242.554 181.019 242.516 181.513 242.44 182.02ZM233.092 173.622C231.344 173.622 229.875 174.116 228.684 175.104C227.519 176.092 226.797 177.435 226.518 179.132H239.21C238.932 177.384 238.235 176.029 237.12 175.066C236.006 174.103 234.663 173.622 233.092 173.622ZM249.661 171V174.192C250.75 171.836 252.726 170.658 255.589 170.658V174.116C253.967 174.04 252.574 174.471 251.409 175.408C250.243 176.345 249.661 177.853 249.661 179.93V190H246.355V171H249.661ZM260.968 176.13C260.968 177.346 262.222 178.296 264.73 178.98C265.668 179.183 266.453 179.398 267.086 179.626C267.745 179.829 268.454 180.145 269.214 180.576C270 181.007 270.595 181.577 271 182.286C271.406 182.995 271.608 183.831 271.608 184.794C271.608 186.517 270.937 187.897 269.594 188.936C268.252 189.975 266.554 190.494 264.502 190.494C262.678 190.494 261.095 190.101 259.752 189.316C258.435 188.505 257.498 187.416 256.94 186.048L259.79 184.414C260.094 185.326 260.664 186.048 261.5 186.58C262.336 187.112 263.337 187.378 264.502 187.378C265.642 187.378 266.554 187.163 267.238 186.732C267.922 186.301 268.264 185.655 268.264 184.794C268.264 183.502 267.01 182.565 264.502 181.982C263.666 181.754 263.033 181.577 262.602 181.45C262.172 181.323 261.576 181.095 260.816 180.766C260.082 180.437 259.524 180.095 259.144 179.74C258.764 179.36 258.41 178.866 258.08 178.258C257.776 177.625 257.624 176.928 257.624 176.168C257.624 174.521 258.258 173.166 259.524 172.102C260.816 171.038 262.425 170.506 264.35 170.506C265.896 170.506 267.264 170.861 268.454 171.57C269.67 172.254 270.582 173.217 271.19 174.458L268.416 176.016C267.732 174.395 266.377 173.584 264.35 173.584C263.388 173.584 262.577 173.812 261.918 174.268C261.285 174.724 260.968 175.345 260.968 176.13Z" fill="#121212"/>
<path d="M132.848 328.708C131.771 328.708 130.853 328.468 130.096 327.988C129.349 327.497 128.827 326.82 128.528 325.956L130.112 325.028C130.56 326.287 131.488 326.916 132.896 326.916C133.579 326.916 134.096 326.783 134.448 326.516C134.8 326.249 134.976 325.892 134.976 325.444C134.976 324.996 134.789 324.649 134.416 324.404C134.043 324.159 133.381 323.892 132.432 323.604C131.461 323.316 130.677 322.975 130.08 322.58C129.355 322.068 128.992 321.316 128.992 320.324C128.992 319.332 129.344 318.548 130.048 317.972C130.741 317.385 131.589 317.092 132.592 317.092C133.477 317.092 134.256 317.311 134.928 317.748C135.611 318.175 136.133 318.777 136.496 319.556L134.944 320.452C134.475 319.407 133.691 318.884 132.592 318.884C132.059 318.884 131.632 319.012 131.312 319.268C130.992 319.513 130.832 319.849 130.832 320.276C130.832 320.692 130.992 321.023 131.312 321.268C131.632 321.503 132.224 321.753 133.088 322.02C133.621 322.201 133.931 322.308 134.016 322.34C134.155 322.383 134.432 322.489 134.848 322.66C135.189 322.799 135.461 322.948 135.664 323.108C136.496 323.759 136.88 324.527 136.816 325.412C136.816 326.425 136.448 327.231 135.712 327.828C134.997 328.415 134.043 328.708 132.848 328.708ZM142.913 320.292C143.841 320.292 144.582 320.591 145.137 321.188C145.702 321.775 145.985 322.575 145.985 323.588V328.5H144.257V323.764C144.257 323.167 144.097 322.708 143.777 322.388C143.457 322.068 143.02 321.908 142.465 321.908C141.836 321.908 141.34 322.105 140.977 322.5C140.614 322.884 140.433 323.455 140.433 324.212V328.5H138.705V317.3H140.433V321.524C140.966 320.703 141.793 320.292 142.913 320.292ZM155.013 327.492C154.203 328.303 153.205 328.708 152.021 328.708C150.837 328.708 149.84 328.303 149.029 327.492C148.208 326.671 147.797 325.673 147.797 324.5C147.797 323.327 148.208 322.329 149.029 321.508C149.84 320.697 150.837 320.292 152.021 320.292C153.205 320.292 154.203 320.697 155.013 321.508C155.835 322.329 156.245 323.327 156.245 324.5C156.245 325.673 155.835 326.671 155.013 327.492ZM149.525 324.5C149.525 325.225 149.765 325.828 150.245 326.308C150.725 326.788 151.317 327.028 152.021 327.028C152.725 327.028 153.317 326.788 153.797 326.308C154.277 325.828 154.517 325.225 154.517 324.5C154.517 323.775 154.277 323.172 153.797 322.692C153.317 322.212 152.725 321.972 152.021 321.972C151.317 321.972 150.725 322.212 150.245 322.692C149.765 323.172 149.525 323.775 149.525 324.5ZM162.736 320.292C163.824 320.292 164.763 320.703 165.552 321.524C166.331 322.335 166.72 323.327 166.72 324.5C166.72 325.684 166.331 326.681 165.552 327.492C164.773 328.303 163.835 328.708 162.736 328.708C161.531 328.708 160.597 328.26 159.936 327.364V331.7H158.208V320.5H159.936V321.652C160.587 320.745 161.52 320.292 162.736 320.292ZM160.656 326.34C161.136 326.82 161.739 327.06 162.464 327.06C163.189 327.06 163.792 326.82 164.272 326.34C164.752 325.849 164.992 325.236 164.992 324.5C164.992 323.764 164.752 323.156 164.272 322.676C163.792 322.185 163.189 321.94 162.464 321.94C161.739 321.94 161.136 322.185 160.656 322.676C160.176 323.156 159.936 323.764 159.936 324.5C159.936 325.225 160.176 325.839 160.656 326.34ZM177.294 320.292C178.222 320.292 178.963 320.591 179.518 321.188C180.083 321.775 180.366 322.575 180.366 323.588V328.5H178.638V323.764C178.638 323.167 178.478 322.708 178.158 322.388C177.838 322.068 177.401 321.908 176.846 321.908C176.217 321.908 175.721 322.105 175.358 322.5C174.995 322.884 174.814 323.455 174.814 324.212V328.5H173.086V320.5H174.814V321.524C175.347 320.703 176.174 320.292 177.294 320.292ZM189.395 327.492C188.584 328.303 187.587 328.708 186.403 328.708C185.219 328.708 184.221 328.303 183.411 327.492C182.589 326.671 182.179 325.673 182.179 324.5C182.179 323.327 182.589 322.329 183.411 321.508C184.221 320.697 185.219 320.292 186.403 320.292C187.587 320.292 188.584 320.697 189.395 321.508C190.216 322.329 190.627 323.327 190.627 324.5C190.627 325.673 190.216 326.671 189.395 327.492ZM183.907 324.5C183.907 325.225 184.147 325.828 184.627 326.308C185.107 326.788 185.699 327.028 186.403 327.028C187.107 327.028 187.699 326.788 188.179 326.308C188.659 325.828 188.899 325.225 188.899 324.5C188.899 323.775 188.659 323.172 188.179 322.692C187.699 322.212 187.107 321.972 186.403 321.972C185.699 321.972 185.107 322.212 184.627 322.692C184.147 323.172 183.907 323.775 183.907 324.5ZM199.925 326.02L201.493 320.5H203.317L200.805 328.5H199.109L197.445 323.108L195.765 328.5H194.069L191.557 320.5H193.381L194.933 326.02L196.613 320.5H198.261L199.925 326.02Z" fill="#121212"/>
<path d="M223.14 318L221.681 319.504L225 323H211V325H225L221.702 328.504L223.167 330L229 323.986L223.14 318Z" fill="black"/>
<path d="M0 360H-1V361H0V360ZM360 359H0V361H360V359ZM1 360V0H-1V360H1Z" fill="#121212" mask="url(#path-1-inside-1_160_1055)"/>
</svg>
