<svg width="360" height="360" viewBox="0 0 360 360" fill="none" xmlns="http://www.w3.org/2000/svg">
<path d="M94.1486 163.4V186.656H105.625V190H90.6146V163.4H94.1486ZM110.499 167.542C109.866 167.542 109.334 167.327 108.903 166.896C108.473 166.465 108.257 165.946 108.257 165.338C108.257 164.73 108.473 164.211 108.903 163.78C109.334 163.324 109.866 163.096 110.499 163.096C111.107 163.096 111.627 163.324 112.057 163.78C112.488 164.211 112.703 164.73 112.703 165.338C112.703 165.946 112.488 166.465 112.057 166.896C111.627 167.327 111.107 167.542 110.499 167.542ZM112.133 190H108.827V171H112.133V190ZM124.511 186.466L130.477 171H134.049L126.449 190H122.573L114.973 171H118.545L124.511 186.466ZM154.343 182.02H138.421C138.75 183.692 139.523 185.009 140.739 185.972C141.955 186.909 143.475 187.378 145.299 187.378C147.807 187.378 149.631 186.453 150.771 184.604L153.583 186.2C151.708 189.063 148.921 190.494 145.223 190.494C142.233 190.494 139.776 189.557 137.851 187.682C135.976 185.757 135.039 183.363 135.039 180.5C135.039 177.612 135.963 175.231 137.813 173.356C139.662 171.456 142.056 170.506 144.995 170.506C147.781 170.506 150.049 171.494 151.797 173.47C153.57 175.395 154.457 177.751 154.457 180.538C154.457 181.019 154.419 181.513 154.343 182.02ZM144.995 173.622C143.247 173.622 141.777 174.116 140.587 175.104C139.421 176.092 138.699 177.435 138.421 179.132H151.113C150.834 177.384 150.137 176.029 149.023 175.066C147.908 174.103 146.565 173.622 144.995 173.622ZM168.099 163.4H177.751C180.183 163.4 182.222 164.223 183.869 165.87C185.516 167.517 186.339 169.543 186.339 171.95C186.339 174.357 185.516 176.383 183.869 178.03C182.222 179.677 180.183 180.5 177.751 180.5H171.633V190H168.099V163.4ZM171.633 177.194H177.751C179.246 177.194 180.462 176.7 181.399 175.712C182.362 174.673 182.843 173.419 182.843 171.95C182.843 170.43 182.362 169.176 181.399 168.188C180.436 167.2 179.22 166.706 177.751 166.706H171.633V177.194ZM193.477 190H190.171V162.26H193.477V190ZM214.253 174.268V171H217.559V190H214.253V186.732C212.631 189.24 210.237 190.494 207.071 190.494C204.385 190.494 202.118 189.531 200.269 187.606C198.394 185.655 197.457 183.287 197.457 180.5C197.457 177.739 198.394 175.383 200.269 173.432C202.143 171.481 204.411 170.506 207.071 170.506C210.237 170.506 212.631 171.76 214.253 174.268ZM207.489 187.302C209.414 187.302 211.023 186.656 212.315 185.364C213.607 184.021 214.253 182.4 214.253 180.5C214.253 178.575 213.607 176.966 212.315 175.674C211.023 174.357 209.414 173.698 207.489 173.698C205.589 173.698 203.993 174.357 202.701 175.674C201.409 176.966 200.763 178.575 200.763 180.5C200.763 182.4 201.409 184.021 202.701 185.364C203.993 186.656 205.589 187.302 207.489 187.302ZM232.03 170.506C234.259 170.506 236.045 171.215 237.388 172.634C238.73 174.027 239.402 175.927 239.402 178.334V190H236.096V178.524C236.096 177.004 235.678 175.813 234.842 174.952C234.006 174.091 232.853 173.66 231.384 173.66C229.686 173.66 228.344 174.192 227.356 175.256C226.368 176.295 225.874 177.853 225.874 179.93V190H222.568V171H225.874V173.736C227.191 171.583 229.243 170.506 232.03 170.506ZM254.353 171V174.192H249.299V184.49C249.299 185.427 249.476 186.099 249.831 186.504C250.211 186.884 250.781 187.087 251.541 187.112C252.301 187.112 253.238 187.087 254.353 187.036V190C251.439 190.38 249.311 190.139 247.969 189.278C246.651 188.417 245.993 186.821 245.993 184.49V174.192H242.231V171H245.993V166.668L249.299 165.68V171H254.353ZM260.189 176.13C260.189 177.346 261.443 178.296 263.951 178.98C264.888 179.183 265.674 179.398 266.307 179.626C266.966 179.829 267.675 180.145 268.435 180.576C269.22 181.007 269.816 181.577 270.221 182.286C270.626 182.995 270.829 183.831 270.829 184.794C270.829 186.517 270.158 187.897 268.815 188.936C267.472 189.975 265.775 190.494 263.723 190.494C261.899 190.494 260.316 190.101 258.973 189.316C257.656 188.505 256.718 187.416 256.161 186.048L259.011 184.414C259.315 185.326 259.885 186.048 260.721 186.58C261.557 187.112 262.558 187.378 263.723 187.378C264.863 187.378 265.775 187.163 266.459 186.732C267.143 186.301 267.485 185.655 267.485 184.794C267.485 183.502 266.231 182.565 263.723 181.982C262.887 181.754 262.254 181.577 261.823 181.45C261.392 181.323 260.797 181.095 260.037 180.766C259.302 180.437 258.745 180.095 258.365 179.74C257.985 179.36 257.63 178.866 257.301 178.258C256.997 177.625 256.845 176.928 256.845 176.168C256.845 174.521 257.478 173.166 258.745 172.102C260.037 171.038 261.646 170.506 263.571 170.506C265.116 170.506 266.484 170.861 267.675 171.57C268.891 172.254 269.803 173.217 270.411 174.458L267.637 176.016C266.953 174.395 265.598 173.584 263.571 173.584C262.608 173.584 261.798 173.812 261.139 174.268C260.506 174.724 260.189 175.345 260.189 176.13Z" fill="#121212"/>
<path d="M132.848 328.708C131.771 328.708 130.853 328.468 130.096 327.988C129.349 327.497 128.827 326.82 128.528 325.956L130.112 325.028C130.56 326.287 131.488 326.916 132.896 326.916C133.579 326.916 134.096 326.783 134.448 326.516C134.8 326.249 134.976 325.892 134.976 325.444C134.976 324.996 134.789 324.649 134.416 324.404C134.043 324.159 133.381 323.892 132.432 323.604C131.461 323.316 130.677 322.975 130.08 322.58C129.355 322.068 128.992 321.316 128.992 320.324C128.992 319.332 129.344 318.548 130.048 317.972C130.741 317.385 131.589 317.092 132.592 317.092C133.477 317.092 134.256 317.311 134.928 317.748C135.611 318.175 136.133 318.777 136.496 319.556L134.944 320.452C134.475 319.407 133.691 318.884 132.592 318.884C132.059 318.884 131.632 319.012 131.312 319.268C130.992 319.513 130.832 319.849 130.832 320.276C130.832 320.692 130.992 321.023 131.312 321.268C131.632 321.503 132.224 321.753 133.088 322.02C133.621 322.201 133.931 322.308 134.016 322.34C134.155 322.383 134.432 322.489 134.848 322.66C135.189 322.799 135.461 322.948 135.664 323.108C136.496 323.759 136.88 324.527 136.816 325.412C136.816 326.425 136.448 327.231 135.712 327.828C134.997 328.415 134.043 328.708 132.848 328.708ZM142.913 320.292C143.841 320.292 144.582 320.591 145.137 321.188C145.702 321.775 145.985 322.575 145.985 323.588V328.5H144.257V323.764C144.257 323.167 144.097 322.708 143.777 322.388C143.457 322.068 143.02 321.908 142.465 321.908C141.836 321.908 141.34 322.105 140.977 322.5C140.614 322.884 140.433 323.455 140.433 324.212V328.5H138.705V317.3H140.433V321.524C140.966 320.703 141.793 320.292 142.913 320.292ZM155.013 327.492C154.203 328.303 153.205 328.708 152.021 328.708C150.837 328.708 149.84 328.303 149.029 327.492C148.208 326.671 147.797 325.673 147.797 324.5C147.797 323.327 148.208 322.329 149.029 321.508C149.84 320.697 150.837 320.292 152.021 320.292C153.205 320.292 154.203 320.697 155.013 321.508C155.835 322.329 156.245 323.327 156.245 324.5C156.245 325.673 155.835 326.671 155.013 327.492ZM149.525 324.5C149.525 325.225 149.765 325.828 150.245 326.308C150.725 326.788 151.317 327.028 152.021 327.028C152.725 327.028 153.317 326.788 153.797 326.308C154.277 325.828 154.517 325.225 154.517 324.5C154.517 323.775 154.277 323.172 153.797 322.692C153.317 322.212 152.725 321.972 152.021 321.972C151.317 321.972 150.725 322.212 150.245 322.692C149.765 323.172 149.525 323.775 149.525 324.5ZM162.736 320.292C163.824 320.292 164.763 320.703 165.552 321.524C166.331 322.335 166.72 323.327 166.72 324.5C166.72 325.684 166.331 326.681 165.552 327.492C164.773 328.303 163.835 328.708 162.736 328.708C161.531 328.708 160.597 328.26 159.936 327.364V331.7H158.208V320.5H159.936V321.652C160.587 320.745 161.52 320.292 162.736 320.292ZM160.656 326.34C161.136 326.82 161.739 327.06 162.464 327.06C163.189 327.06 163.792 326.82 164.272 326.34C164.752 325.849 164.992 325.236 164.992 324.5C164.992 323.764 164.752 323.156 164.272 322.676C163.792 322.185 163.189 321.94 162.464 321.94C161.739 321.94 161.136 322.185 160.656 322.676C160.176 323.156 159.936 323.764 159.936 324.5C159.936 325.225 160.176 325.839 160.656 326.34ZM177.294 320.292C178.222 320.292 178.963 320.591 179.518 321.188C180.083 321.775 180.366 322.575 180.366 323.588V328.5H178.638V323.764C178.638 323.167 178.478 322.708 178.158 322.388C177.838 322.068 177.401 321.908 176.846 321.908C176.217 321.908 175.721 322.105 175.358 322.5C174.995 322.884 174.814 323.455 174.814 324.212V328.5H173.086V320.5H174.814V321.524C175.347 320.703 176.174 320.292 177.294 320.292ZM189.395 327.492C188.584 328.303 187.587 328.708 186.403 328.708C185.219 328.708 184.221 328.303 183.411 327.492C182.589 326.671 182.179 325.673 182.179 324.5C182.179 323.327 182.589 322.329 183.411 321.508C184.221 320.697 185.219 320.292 186.403 320.292C187.587 320.292 188.584 320.697 189.395 321.508C190.216 322.329 190.627 323.327 190.627 324.5C190.627 325.673 190.216 326.671 189.395 327.492ZM183.907 324.5C183.907 325.225 184.147 325.828 184.627 326.308C185.107 326.788 185.699 327.028 186.403 327.028C187.107 327.028 187.699 326.788 188.179 326.308C188.659 325.828 188.899 325.225 188.899 324.5C188.899 323.775 188.659 323.172 188.179 322.692C187.699 322.212 187.107 321.972 186.403 321.972C185.699 321.972 185.107 322.212 184.627 322.692C184.147 323.172 183.907 323.775 183.907 324.5ZM199.925 326.02L201.493 320.5H203.317L200.805 328.5H199.109L197.445 323.108L195.765 328.5H194.069L191.557 320.5H193.381L194.933 326.02L196.613 320.5H198.261L199.925 326.02Z" fill="#121212"/>
<path d="M223.14 318L221.681 319.504L225 323H211V325H225L221.702 328.504L223.167 330L229 323.986L223.14 318Z" fill="black"/>
<path d="M0 360H-1V361H0V360ZM360 359H0V361H360V359ZM1 360V0H-1V360H1Z" fill="#121212" mask="url(#path-1-inside-1_158_1033)"/>
</svg>
