<svg width="24" height="25" viewBox="0 0 24 25" fill="none" xmlns="http://www.w3.org/2000/svg">
<g id="shopping_cart_FILL0_wght300_GRAD0_opsz24">
<path id="Vector" d="M8.71654 22.5C8.22752 22.5 7.81033 22.332 7.46497 21.996C7.11895 21.6593 6.94593 21.253 6.94593 20.7772C6.94593 20.3014 7.11895 19.8951 7.46497 19.5584C7.81033 19.2224 8.22752 19.0544 8.71654 19.0544C9.20557 19.0544 9.62276 19.2224 9.96811 19.5584C10.3141 19.8951 10.4872 20.3014 10.4872 20.7772C10.4872 21.253 10.3141 21.6593 9.96811 21.996C9.62276 22.332 9.20557 22.5 8.71654 22.5ZM18.5308 22.5C18.0418 22.5 17.6246 22.332 17.2792 21.996C16.9332 21.6593 16.7602 21.253 16.7602 20.7772C16.7602 20.3014 16.9332 19.8951 17.2792 19.5584C17.6246 19.2224 18.0418 19.0544 18.5308 19.0544C19.0198 19.0544 19.437 19.2224 19.7824 19.5584C20.1284 19.8951 20.3014 20.3014 20.3014 20.7772C20.3014 21.253 20.1284 21.6593 19.7824 21.996C19.437 22.332 19.0198 22.5 18.5308 22.5ZM7.57829 6.9456L10.133 12.1632H17.0384C17.089 12.1632 17.1396 12.1507 17.1902 12.1258C17.2408 12.1015 17.2745 12.0648 17.2914 12.0155L20.0232 7.21632C20.0569 7.15069 20.0569 7.08933 20.0232 7.03223C19.9894 6.97447 19.9388 6.9456 19.8714 6.9456H7.57829ZM6.84475 5.46891H20.8832C21.3047 5.46891 21.6211 5.64119 21.8322 5.98575C22.0427 6.33031 22.0551 6.68307 21.8696 7.04404L18.6067 12.7539C18.4549 13.0328 18.2401 13.2501 17.9622 13.4056C17.6836 13.5618 17.3841 13.6399 17.0637 13.6399H9.67773L8.51419 15.7319C8.4636 15.8139 8.45955 15.8959 8.50205 15.978C8.54387 16.06 8.61536 16.101 8.71654 16.101H20.3014V17.5777H8.71654C8.04202 17.5777 7.53614 17.2949 7.19888 16.7291C6.86162 16.1627 6.85319 15.6006 7.17358 15.0427L8.61536 12.5078L4.92238 4.97668H3V3.5H5.88357L6.84475 5.46891ZM10.133 12.1632H17.2155H10.133Z" fill="#121212"/>
</g>
</svg>
