<svg width="360" height="360" viewBox="0 0 360 360" fill="none" xmlns="http://www.w3.org/2000/svg">
<path d="M69.2189 190H65.4569L63.2909 184.034H51.3209L49.1549 190H45.3929L55.3109 163.4H59.3009L69.2189 190ZM57.2869 167.618L52.5369 180.728H62.0749L57.2869 167.618ZM75.3208 171V174.192C76.4102 171.836 78.3862 170.658 81.2488 170.658V174.116C79.6275 174.04 78.2342 174.471 77.0688 175.408C75.9035 176.345 75.3208 177.853 75.3208 179.93V190H72.0148V171H75.3208ZM99.4805 187.606C97.5552 189.531 95.1865 190.494 92.3745 190.494C89.5625 190.494 87.1939 189.531 85.2685 187.606C83.3432 185.681 82.3805 183.312 82.3805 180.5C82.3805 177.688 83.3432 175.319 85.2685 173.394C87.1939 171.469 89.5625 170.506 92.3745 170.506C95.1865 170.506 97.5552 171.469 99.4805 173.394C101.431 175.345 102.407 177.713 102.407 180.5C102.407 183.287 101.431 185.655 99.4805 187.606ZM92.3745 187.264C94.2745 187.264 95.8705 186.618 97.1625 185.326C98.4545 184.034 99.1005 182.425 99.1005 180.5C99.1005 178.575 98.4545 176.966 97.1625 175.674C95.8705 174.382 94.2745 173.736 92.3745 173.736C90.4999 173.736 88.9165 174.382 87.6245 175.674C86.3325 176.966 85.6865 178.575 85.6865 180.5C85.6865 182.425 86.3325 184.034 87.6245 185.326C88.9165 186.618 90.4999 187.264 92.3745 187.264ZM126.824 170.506C128.977 170.506 130.7 171.203 131.992 172.596C133.309 173.989 133.968 175.851 133.968 178.182V190H130.662V178.296C130.662 176.852 130.282 175.725 129.522 174.914C128.787 174.078 127.774 173.66 126.482 173.66C125.013 173.66 123.86 174.154 123.024 175.142C122.213 176.105 121.808 177.536 121.808 179.436V190H118.502V178.296C118.502 176.852 118.135 175.725 117.4 174.914C116.691 174.078 115.715 173.66 114.474 173.66C113.03 173.66 111.852 174.167 110.94 175.18C110.053 176.168 109.61 177.587 109.61 179.436V190H106.304V171H109.61V173.546C110.902 171.519 112.789 170.506 115.272 170.506C117.831 170.506 119.693 171.583 120.858 173.736C122.175 171.583 124.164 170.506 126.824 170.506ZM154.284 174.268V171H157.59V190H154.284V186.732C152.663 189.24 150.269 190.494 147.102 190.494C144.417 190.494 142.149 189.531 140.3 187.606C138.425 185.655 137.488 183.287 137.488 180.5C137.488 177.739 138.425 175.383 140.3 173.432C142.175 171.481 144.442 170.506 147.102 170.506C150.269 170.506 152.663 171.76 154.284 174.268ZM147.52 187.302C149.445 187.302 151.054 186.656 152.346 185.364C153.638 184.021 154.284 182.4 154.284 180.5C154.284 178.575 153.638 176.966 152.346 175.674C151.054 174.357 149.445 173.698 147.52 173.698C145.62 173.698 144.024 174.357 142.732 175.674C141.44 176.966 140.794 178.575 140.794 180.5C140.794 182.4 141.44 184.021 142.732 185.364C144.024 186.656 145.62 187.302 147.52 187.302ZM184.943 190.494C180.889 190.494 177.558 189.164 174.949 186.504C172.339 183.869 171.035 180.601 171.035 176.7C171.035 172.799 172.339 169.531 174.949 166.896C177.558 164.236 180.889 162.906 184.943 162.906C187.349 162.906 189.579 163.489 191.631 164.654C193.683 165.819 195.279 167.39 196.419 169.366L193.341 171.152C192.581 169.683 191.441 168.517 189.921 167.656C188.426 166.769 186.767 166.326 184.943 166.326C181.852 166.326 179.344 167.314 177.419 169.29C175.493 171.241 174.531 173.711 174.531 176.7C174.531 179.664 175.493 182.121 177.419 184.072C179.344 186.048 181.852 187.036 184.943 187.036C186.767 187.036 188.426 186.605 189.921 185.744C191.441 184.857 192.581 183.692 193.341 182.248L196.419 183.996C195.304 185.972 193.721 187.555 191.669 188.746C189.642 189.911 187.4 190.494 184.943 190.494ZM215.737 174.268V171H219.043V190H215.737V186.732C214.116 189.24 211.722 190.494 208.555 190.494C205.87 190.494 203.602 189.531 201.753 187.606C199.878 185.655 198.941 183.287 198.941 180.5C198.941 177.739 199.878 175.383 201.753 173.432C203.628 171.481 205.895 170.506 208.555 170.506C211.722 170.506 214.116 171.76 215.737 174.268ZM208.973 187.302C210.898 187.302 212.507 186.656 213.799 185.364C215.091 184.021 215.737 182.4 215.737 180.5C215.737 178.575 215.091 176.966 213.799 175.674C212.507 174.357 210.898 173.698 208.973 173.698C207.073 173.698 205.477 174.357 204.185 175.674C202.893 176.966 202.247 178.575 202.247 180.5C202.247 182.4 202.893 184.021 204.185 185.364C205.477 186.656 207.073 187.302 208.973 187.302ZM233.514 170.506C235.743 170.506 237.529 171.215 238.872 172.634C240.215 174.027 240.886 175.927 240.886 178.334V190H237.58V178.524C237.58 177.004 237.162 175.813 236.326 174.952C235.49 174.091 234.337 173.66 232.868 173.66C231.171 173.66 229.828 174.192 228.84 175.256C227.852 176.295 227.358 177.853 227.358 179.93V190H224.052V171H227.358V173.736C228.675 171.583 230.727 170.506 233.514 170.506ZM261.233 174.268V163.4H264.539V190H261.233V186.732C259.612 189.24 257.218 190.494 254.051 190.494C251.366 190.494 249.098 189.531 247.249 187.606C245.374 185.655 244.437 183.287 244.437 180.5C244.437 177.739 245.374 175.383 247.249 173.432C249.124 171.481 251.391 170.506 254.051 170.506C257.218 170.506 259.612 171.76 261.233 174.268ZM254.469 187.302C256.394 187.302 258.003 186.656 259.295 185.364C260.587 184.021 261.233 182.4 261.233 180.5C261.233 178.575 260.587 176.966 259.295 175.674C258.003 174.357 256.394 173.698 254.469 173.698C252.569 173.698 250.973 174.357 249.681 175.674C248.389 176.966 247.743 178.575 247.743 180.5C247.743 182.4 248.389 184.021 249.681 185.364C250.973 186.656 252.569 187.302 254.469 187.302ZM287.788 182.02H271.866C272.195 183.692 272.968 185.009 274.184 185.972C275.4 186.909 276.92 187.378 278.744 187.378C281.252 187.378 283.076 186.453 284.216 184.604L287.028 186.2C285.153 189.063 282.367 190.494 278.668 190.494C275.679 190.494 273.221 189.557 271.296 187.682C269.421 185.757 268.484 183.363 268.484 180.5C268.484 177.612 269.409 175.231 271.258 173.356C273.107 171.456 275.501 170.506 278.44 170.506C281.227 170.506 283.494 171.494 285.242 173.47C287.015 175.395 287.902 177.751 287.902 180.538C287.902 181.019 287.864 181.513 287.788 182.02ZM278.44 173.622C276.692 173.622 275.223 174.116 274.032 175.104C272.867 176.092 272.145 177.435 271.866 179.132H284.558C284.279 177.384 283.583 176.029 282.468 175.066C281.353 174.103 280.011 173.622 278.44 173.622ZM295.008 190H291.702V162.26H295.008V190ZM302.865 176.13C302.865 177.346 304.119 178.296 306.627 178.98C307.564 179.183 308.35 179.398 308.983 179.626C309.642 179.829 310.351 180.145 311.111 180.576C311.896 181.007 312.492 181.577 312.897 182.286C313.302 182.995 313.505 183.831 313.505 184.794C313.505 186.517 312.834 187.897 311.491 188.936C310.148 189.975 308.451 190.494 306.399 190.494C304.575 190.494 302.992 190.101 301.649 189.316C300.332 188.505 299.394 187.416 298.837 186.048L301.687 184.414C301.991 185.326 302.561 186.048 303.397 186.58C304.233 187.112 305.234 187.378 306.399 187.378C307.539 187.378 308.451 187.163 309.135 186.732C309.819 186.301 310.161 185.655 310.161 184.794C310.161 183.502 308.907 182.565 306.399 181.982C305.563 181.754 304.93 181.577 304.499 181.45C304.068 181.323 303.473 181.095 302.713 180.766C301.978 180.437 301.421 180.095 301.041 179.74C300.661 179.36 300.306 178.866 299.977 178.258C299.673 177.625 299.521 176.928 299.521 176.168C299.521 174.521 300.154 173.166 301.421 172.102C302.713 171.038 304.322 170.506 306.247 170.506C307.792 170.506 309.16 170.861 310.351 171.57C311.567 172.254 312.479 173.217 313.087 174.458L310.313 176.016C309.629 174.395 308.274 173.584 306.247 173.584C305.284 173.584 304.474 173.812 303.815 174.268C303.182 174.724 302.865 175.345 302.865 176.13Z" fill="#121212"/>
<path d="M138.102 329L132.461 323.5L138.102 318L139.01 318.865L134.89 322.882H148.538V324.118H134.89L138.989 328.135L138.102 329Z" fill="#121212"/>
<path d="M160.816 328.708C159.771 328.708 158.875 328.468 158.128 327.988C157.392 327.497 156.875 326.82 156.576 325.956L157.856 325.22C158.283 326.575 159.28 327.252 160.848 327.252C161.605 327.252 162.187 327.097 162.592 326.788C163.008 326.479 163.216 326.057 163.216 325.524C163.216 325.001 163.013 324.601 162.608 324.324C162.245 324.079 161.568 323.796 160.576 323.476L159.504 323.124C159.269 323.028 158.96 322.889 158.576 322.708C158.203 322.516 157.931 322.324 157.76 322.132C157.291 321.62 157.056 320.996 157.056 320.26C157.056 319.279 157.397 318.511 158.08 317.956C158.763 317.38 159.595 317.092 160.576 317.092C161.451 317.092 162.219 317.311 162.88 317.748C163.541 318.185 164.037 318.783 164.368 319.54L163.12 320.26C162.64 319.108 161.792 318.532 160.576 318.532C159.968 318.532 159.477 318.681 159.104 318.98C158.731 319.279 158.544 319.684 158.544 320.196C158.544 320.687 158.72 321.06 159.072 321.316C159.435 321.583 160.043 321.849 160.896 322.116L161.552 322.324C161.915 322.463 162.112 322.537 162.144 322.548C162.485 322.676 162.859 322.852 163.264 323.076C163.552 323.236 163.84 323.481 164.128 323.812C164.501 324.185 164.688 324.745 164.688 325.492C164.688 326.473 164.331 327.257 163.616 327.844C162.891 328.42 161.957 328.708 160.816 328.708ZM170.69 320.292C171.629 320.292 172.381 320.591 172.946 321.188C173.511 321.775 173.794 322.575 173.794 323.588V328.5H172.402V323.668C172.402 323.028 172.226 322.527 171.874 322.164C171.522 321.801 171.037 321.62 170.418 321.62C169.703 321.62 169.138 321.844 168.722 322.292C168.306 322.729 168.098 323.385 168.098 324.26V328.5H166.706V317.3H168.098V321.652C168.653 320.745 169.517 320.292 170.69 320.292ZM182.889 327.492C182.079 328.303 181.081 328.708 179.897 328.708C178.713 328.708 177.716 328.303 176.905 327.492C176.095 326.681 175.689 325.684 175.689 324.5C175.689 323.316 176.095 322.319 176.905 321.508C177.716 320.697 178.713 320.292 179.897 320.292C181.081 320.292 182.079 320.697 182.889 321.508C183.711 322.329 184.121 323.327 184.121 324.5C184.121 325.673 183.711 326.671 182.889 327.492ZM179.897 327.348C180.697 327.348 181.369 327.076 181.913 326.532C182.457 325.988 182.729 325.311 182.729 324.5C182.729 323.689 182.457 323.012 181.913 322.468C181.369 321.924 180.697 321.652 179.897 321.652C179.108 321.652 178.441 321.924 177.897 322.468C177.353 323.012 177.081 323.689 177.081 324.5C177.081 325.311 177.353 325.988 177.897 326.532C178.441 327.076 179.108 327.348 179.897 327.348ZM190.578 320.292C191.698 320.292 192.653 320.703 193.442 321.524C194.232 322.345 194.626 323.337 194.626 324.5C194.626 325.673 194.232 326.671 193.442 327.492C192.664 328.303 191.709 328.708 190.578 328.708C189.256 328.708 188.248 328.18 187.554 327.124V331.7H186.162V320.5H187.554V321.876C188.248 320.82 189.256 320.292 190.578 320.292ZM190.402 327.364C191.202 327.364 191.874 327.092 192.418 326.548C192.962 325.983 193.234 325.3 193.234 324.5C193.234 323.689 192.962 323.012 192.418 322.468C191.874 321.913 191.202 321.636 190.402 321.636C189.592 321.636 188.914 321.913 188.37 322.468C187.826 323.012 187.554 323.689 187.554 324.5C187.554 325.3 187.826 325.983 188.37 326.548C188.914 327.092 189.592 327.364 190.402 327.364ZM205.071 320.292C206.01 320.292 206.762 320.591 207.327 321.188C207.893 321.775 208.175 322.575 208.175 323.588V328.5H206.783V323.668C206.783 323.028 206.607 322.527 206.255 322.164C205.903 321.801 205.418 321.62 204.799 321.62C204.085 321.62 203.519 321.844 203.103 322.292C202.687 322.729 202.479 323.385 202.479 324.26V328.5H201.087V320.5H202.479V321.652C203.034 320.745 203.898 320.292 205.071 320.292ZM217.271 327.492C216.46 328.303 215.463 328.708 214.279 328.708C213.095 328.708 212.097 328.303 211.287 327.492C210.476 326.681 210.071 325.684 210.071 324.5C210.071 323.316 210.476 322.319 211.287 321.508C212.097 320.697 213.095 320.292 214.279 320.292C215.463 320.292 216.46 320.697 217.271 321.508C218.092 322.329 218.503 323.327 218.503 324.5C218.503 325.673 218.092 326.671 217.271 327.492ZM214.279 327.348C215.079 327.348 215.751 327.076 216.295 326.532C216.839 325.988 217.111 325.311 217.111 324.5C217.111 323.689 216.839 323.012 216.295 322.468C215.751 321.924 215.079 321.652 214.279 321.652C213.489 321.652 212.823 321.924 212.279 322.468C211.735 323.012 211.463 323.689 211.463 324.5C211.463 325.311 211.735 325.988 212.279 326.532C212.823 327.076 213.489 327.348 214.279 327.348ZM227.895 326.596L229.655 320.5H231.111L228.631 328.5H227.207L225.335 322.58L223.463 328.5H222.039L219.559 320.5H221.015L222.775 326.58L224.663 320.5H226.007L227.895 326.596Z" fill="#121212"/>
<path d="M0 360H-1V361H0V360ZM360 359H0V361H360V359ZM1 360V0H-1V360H1Z" fill="#121212" mask="url(#path-1-inside-1_1280_7426)"/>
</svg>
